<svg id="_6" data-name="6" xmlns="http://www.w3.org/2000/svg" viewBox="0 0 760 238.52"><defs><style>.cls-1,.cls-3{fill:#fff;}.cls-2{fill:#004bb3;}.cls-3{font-size:72px;}.cls-11,.cls-3{font-family:SegoeUI-Semilight, Segoe UI;font-weight:300;}.cls-4{font-size:48px;}.cls-4,.cls-7{font-family:SegoeUI-Semibold, Segoe UI;font-weight:600;}.cls-5{letter-spacing:-0.01em;}.cls-6{letter-spacing:0.04em;}.cls-7{font-size:36px;fill:#0078d4;}.cls-8{letter-spacing:-0.01em;}.cls-9{letter-spacing:-0.03em;}.cls-10{letter-spacing:0.03em;}.cls-11{font-size:21px;fill:#a5a5a5;}.cls-12{letter-spacing:-0.01em;}.cls-13{letter-spacing:-0.04em;}.cls-14{letter-spacing:-0.07em;}.cls-15{letter-spacing:0.03em;}</style></defs><rect class="cls-1" width="760" height="238.52"/><circle class="cls-2" cx="107.5" cy="103.5" r="74.5"/><text class="cls-3" transform="translate(61.69 130.11)">AA</text><text class="cls-4" transform="translate(219.75 66.83)">Klan<tspan class="cls-5" x="94.92" y="0">t</tspan><tspan x="111.98" y="0">ense</tspan><tspan class="cls-6" x="211.69" y="0">r</tspan><tspan x="231.38" y="0">vice Amazi...</tspan></text><text class="cls-7" transform="translate(220.75 107.57)">Ge<tspan class="cls-8" x="44.23" y="0">v</tspan><tspan x="62.21" y="0">onden </tspan><tspan class="cls-9" x="176.43" y="0">P</tspan><tspan x="196.26" y="0">o</tspan><tspan class="cls-10" x="217.76" y="0">r</tspan><tspan class="cls-5" x="232.12" y="0">t</tspan><tspan x="244.92" y="0">emonnee</tspan></text><text class="cls-11" transform="translate(218.91 159.02)">Bes<tspan class="cls-8" x="31.05" y="0">t</tspan><tspan x="37.56" y="0">e meneer/mev</tspan><tspan class="cls-12" x="168.97" y="0">r</tspan><tspan x="175.81" y="0">ou</tspan><tspan class="cls-13" x="199.42" y="0">w</tspan><tspan x="213.19" y="0">,</tspan><tspan class="cls-14" x="0" y="50.4">V</tspan><tspan x="11.35" y="50.4">anmiddag hebben wij uw po</tspan><tspan class="cls-15" x="268.71" y="50.4">r</tspan><tspan class="cls-8" x="276.44" y="50.4">t</tspan><tspan x="282.95" y="50.4">emonnee ge</tspan><tspan class="cls-5" x="396.72" y="50.4">v</tspan><tspan x="406.38" y="50.4">onden...</tspan></text></svg>