<svg xmlns="http://www.w3.org/2000/svg" viewBox="0 0 1013 852"><defs><style>.cls-1{fill:#fff;}.cls-2{fill:#ebebeb;}.cls-3{fill:#0078d4;}.cls-4{font-size:24px;font-family:SegoeUI, Segoe UI;}.cls-5{fill:#00457a;}.cls-6{fill:#99d3ff;}.cls-13,.cls-7{font-size:21px;}.cls-7{font-family:SegoeUI-Semilight, Segoe UI;font-weight:300;}.cls-8{letter-spacing:-0.06em;}.cls-9{letter-spacing:0.02em;}.cls-10{letter-spacing:-0.04em;}.cls-11{letter-spacing:-0.02em;}.cls-12{letter-spacing:-0.01em;}.cls-13{font-family:SegoeUI-Semibold, Segoe UI;font-weight:600;}.cls-14{letter-spacing:-0.03em;}.cls-15{letter-spacing:-0.01em;}.cls-16{letter-spacing:-0.01em;}.cls-17{letter-spacing:0.04em;}.cls-18{letter-spacing:-0.01em;}.cls-19{letter-spacing:0em;}.cls-20,.cls-21{fill:none;stroke:#000;stroke-width:0.5px;}.cls-20{stroke-miterlimit:10;}.cls-21{stroke-linejoin:round;}</style></defs><g id="Layer_1" data-name="Layer 1"><rect class="cls-1" x="394.5" y="157.5" width="618" height="694"/><path class="cls-2" d="M1045.5,256V949h-617V256h617m1-1h-619V950h619V255Z" transform="translate(-33.5 -98)"/><rect class="cls-2" x="163" y="157" width="231" height="695"/><rect class="cls-2" x="0.5" y="156" width="163" height="696"/><rect class="cls-1" x="0.5" y="37.5" width="1012" height="119"/><path class="cls-2" d="M1045.5,136V254H34.5V136h1011m1-1H33.5V255h1013V135Z" transform="translate(-33.5 -98)"/><rect class="cls-3" width="1013" height="37"/><text class="cls-4" transform="translate(12.98 68.77)">Tijd:</text><rect class="cls-5" x="10" y="115" width="186" height="30"/><rect class="cls-6" x="196" y="115" width="191" height="30"/><text class="cls-7" transform="translate(41.64 394.79)"><tspan class="cls-8">V</tspan><tspan x="11.54" y="0">e</tspan><tspan class="cls-9" x="22.32" y="0">r</tspan><tspan x="29.84" y="0">zonden...</tspan></text><text class="cls-7" transform="translate(41.64 293.47)"><tspan class="cls-10">P</tspan><tspan x="10.81" y="0">ost</tspan><tspan class="cls-11" x="38.05" y="0">v</tspan><tspan x="47.46" y="0">ak IN</tspan></text><text class="cls-7" transform="translate(41.64 344.13)">Concep<tspan class="cls-12" x="68.96" y="0">t</tspan><tspan x="75.47" y="0">en</tspan></text><text class="cls-13" transform="translate(27.5 196.99) scale(0.99 1)"><tspan class="cls-14">F</tspan><tspan x="9.84" y="0">a</tspan><tspan class="cls-15" x="20.81" y="0">v</tspan><tspan x="31.29" y="0">orie</tspan><tspan class="cls-16" x="68.25" y="0">t</tspan><tspan x="75.71" y="0">en</tspan></text><text class="cls-13" transform="translate(27.5 244.21)">Mappen</text><text class="cls-7" transform="translate(41.64 445.22)"><tspan class="cls-8">V</tspan><tspan x="11.54" y="0">e</tspan><tspan class="cls-17" x="22.32" y="0">r</tspan><tspan x="30.28" y="0">wijde</tspan><tspan class="cls-18" x="77.21" y="0">r</tspan><tspan x="84.05" y="0">d...</tspan></text><text class="cls-7" transform="translate(41.64 497.22)">Onge<tspan class="cls-19" x="50.31" y="0">w</tspan><tspan x="64.9" y="0">ens...</tspan></text><text class="cls-7" transform="translate(41.64 548.22)">A<tspan class="cls-18" x="13.36" y="0">r</tspan><tspan x="20.2" y="0">chief</tspan></text><text class="cls-7" transform="translate(41.64 598.89)">Notities</text><text class="cls-7" transform="translate(41.64 648.89)">Gesp<tspan class="cls-18" x="45.58" y="0">r</tspan><tspan x="52.42" y="0">eksge...</tspan></text><text class="cls-7" transform="translate(41.64 701.01)">Zoekmappen</text></g><g id="InboxRectangle"><rect class="cls-1" x="163" y="157.5" width="231" height="99"/><path class="cls-2" d="M427,256v98H197V256H427m1-1H196V355H428V255Z" transform="translate(-33.5 -98)"/></g><g id="Icons"><polyline class="cls-20" points="14.32 195.86 20.68 189.5 14.32 183.14"/><polyline class="cls-20" points="11.14 235.13 17.5 241.49 23.86 235.13"/><rect class="cls-20" x="11" y="276.5" width="17.5" height="17.5" rx="3.72"/><path class="cls-21" d="M62,384.17H56s0,3.22-2.76,3.22-2.76-3.22-2.76-3.22h-6" transform="translate(-33.5 -98)"/><path class="cls-20" d="M63.85,429.18,51.56,441.47,45.07,443l1.53-6.49,12.29-12.29s2.63-2.64,5.11-.15S63.85,429.18,63.85,429.18Z" transform="translate(-33.5 -98)"/><line class="cls-20" x1="29.89" y1="331.65" x2="24.92" y2="326.68"/><line class="cls-20" x1="24.55" y1="326.1" x2="10.5" y2="326.1"/><line class="cls-20" x1="18.4" y1="331.36" x2="10.5" y2="331.36"/><line class="cls-20" x1="14.01" y1="336.63" x2="10.5" y2="336.63"/><polygon class="cls-20" points="9.65 397.78 13.05 388.08 9.65 378.39 30 388.08 9.65 397.78"/><line class="cls-20" x1="24.55" y1="388.08" x2="12.96" y2="388.08"/><path class="cls-20" d="M61.66,526.22l-2.28,16a2.37,2.37,0,0,1-2.14,2.24H50.51a2.37,2.37,0,0,1-2.14-2.24l-2.28-16" transform="translate(-33.5 -98)"/><line class="cls-20" x1="29.89" y1="428.23" x2="10" y2="428.23"/><line class="cls-20" x1="22.36" y1="442.74" x2="22.36" y2="431.99"/><line class="cls-20" x1="18.35" y1="442.74" x2="18.35" y2="431.99"/><path class="cls-20" d="M56.94,526.23a3.23,3.23,0,1,0-6.45,0" transform="translate(-33.5 -98)"/><path class="cls-20" d="M64.15,748H44.25A1.25,1.25,0,0,1,43,746.75v-17.5A1.25,1.25,0,0,1,44.25,728H50.7a1.26,1.26,0,0,1,1.13.71l.46,1a1.26,1.26,0,0,0,1.13.71H64.15a1.25,1.25,0,0,1,1.25,1.25v15.1A1.25,1.25,0,0,1,64.15,748Z" transform="translate(-33.5 -98)"/><path class="cls-20" d="M64.16,748H44.24A1.23,1.23,0,0,1,43,746.76v-14h7.71a1.22,1.22,0,0,0,1.11-.71l.48-1a1.22,1.22,0,0,1,1.11-.71H64.16a1.23,1.23,0,0,1,1.24,1.24v15.12A1.23,1.23,0,0,1,64.16,748Z" transform="translate(-33.5 -98)"/><path class="cls-20" d="M58.05,594.09" transform="translate(-33.5 -98)"/><path class="cls-20" d="M58.05,594.09H42.91a1.23,1.23,0,0,1-1.23-1.23V575.61a1.24,1.24,0,0,1,1.23-1.24h6.36a1.22,1.22,0,0,1,1.11.71l.46,1a1.24,1.24,0,0,0,1.12.7H62.53A1.24,1.24,0,0,1,63.77,578v9.51" transform="translate(-33.5 -98)"/><path class="cls-20" d="M58.06,594.09" transform="translate(-33.5 -98)"/><path class="cls-20" d="M58.06,594.09H42.9a1.22,1.22,0,0,1-1.22-1.22V579.11h7.6a1.21,1.21,0,0,0,1.1-.7l.47-1a1.21,1.21,0,0,1,1.1-.7h10.6A1.22,1.22,0,0,1,63.77,578v9.53" transform="translate(-33.5 -98)"/><circle class="cls-20" cx="28.19" cy="493.52" r="4.48"/><line class="cls-20" x1="31.36" y1="490.35" x2="25.02" y2="496.69"/><rect class="cls-20" x="9.5" y="529.5" width="21.5" height="6.4" rx="1.59"/><path class="cls-20" d="M62.2,633.9v12.15a1.48,1.48,0,0,1-1.32,1.58H46.62a1.48,1.48,0,0,1-1.32-1.58V633.9" transform="translate(-33.5 -98)"/><line class="cls-20" x1="24.14" y1="540.48" x2="16.82" y2="540.48"/><path class="cls-20" d="M56.53,693.67V698H47.27A3.26,3.26,0,0,1,44,694.73v-14a3.26,3.26,0,0,1,3.27-3.27h14a3.26,3.26,0,0,1,3.27,3.27v9.64H59.79A3.26,3.26,0,0,0,56.53,693.67Z" transform="translate(-33.5 -98)"/><line class="cls-20" x1="23.03" y1="600" x2="31" y2="592.41"/><circle class="cls-20" cx="19.52" cy="689.71" r="8.52"/><line class="cls-20" x1="31.17" y1="702.48" x2="24.91" y2="696.22"/></g></svg>