<svg id="Start_Spel" data-name="Start Spel" xmlns="http://www.w3.org/2000/svg" viewBox="0 0 299.25 46.57"><defs><style>.cls-1{fill:#fff;}</style></defs><path class="cls-1" d="M100.12,162.23v-4.64a9.19,9.19,0,0,0,1.91,1.27,16.13,16.13,0,0,0,2.34.95,20.11,20.11,0,0,0,2.47.59,13.93,13.93,0,0,0,2.3.21,9,9,0,0,0,5.43-1.34,5.06,5.06,0,0,0,1.19-6.25,6.91,6.91,0,0,0-1.65-1.84,16.88,16.88,0,0,0-2.5-1.59c-1-.51-2-1.05-3.1-1.61s-2.27-1.19-3.28-1.8a13.89,13.89,0,0,1-2.65-2,8.33,8.33,0,0,1-1.77-2.49,8.48,8.48,0,0,1,.36-7.27,8.65,8.65,0,0,1,2.65-2.8,11.85,11.85,0,0,1,3.74-1.64,17.08,17.08,0,0,1,4.28-.54q5,0,7.24,1.19V135a13.17,13.17,0,0,0-7.64-2.06,12.56,12.56,0,0,0-2.58.27,7.2,7.2,0,0,0-2.3.88,5.13,5.13,0,0,0-1.64,1.57,4.17,4.17,0,0,0-.63,2.34,4.83,4.83,0,0,0,.48,2.23,5.28,5.28,0,0,0,1.42,1.71,13.25,13.25,0,0,0,2.28,1.5c.9.49,1.94,1,3.11,1.6s2.34,1.21,3.42,1.87a15.9,15.9,0,0,1,2.84,2.18,9.83,9.83,0,0,1,1.93,2.65,7.41,7.41,0,0,1,.71,3.33,8.39,8.39,0,0,1-1,4.2,7.91,7.91,0,0,1-2.62,2.8,11.41,11.41,0,0,1-3.81,1.56,21,21,0,0,1-4.55.48,17.56,17.56,0,0,1-2-.13c-.78-.08-1.58-.21-2.39-.37a19.47,19.47,0,0,1-2.31-.61A6.92,6.92,0,0,1,100.12,162.23Z" transform="translate(-100.12 -128.06)"/><path class="cls-1" d="M130.61,160.12h-.09v14.51h-3.85v-35h3.85v4.22h.09a9.09,9.09,0,0,1,8.3-4.78,8.79,8.79,0,0,1,7.24,3.22,13.38,13.38,0,0,1,2.6,8.64q0,6-2.93,9.64a9.73,9.73,0,0,1-8,3.62A8,8,0,0,1,130.61,160.12Zm-.09-9.68v3.35a7.15,7.15,0,0,0,1.93,5.06,6.9,6.9,0,0,0,10.38-.6q2-2.67,2-7.43a9.63,9.63,0,0,0-1.85-6.28,6.12,6.12,0,0,0-5-2.28,6.81,6.81,0,0,0-5.4,2.34A8.58,8.58,0,0,0,130.52,150.44Z" transform="translate(-100.12 -128.06)"/><path class="cls-1" d="M174.18,152.55h-17a9,9,0,0,0,2.16,6.19,7.46,7.46,0,0,0,5.67,2.18,11.81,11.81,0,0,0,7.46-2.67v3.61a14,14,0,0,1-8.37,2.29,10.13,10.13,0,0,1-8-3.27q-2.91-3.27-2.91-9.19a13.1,13.1,0,0,1,3.18-9.13,10.13,10.13,0,0,1,7.88-3.53,9,9,0,0,1,7.29,3.05q2.58,3,2.58,8.46Zm-3.94-3.26a7.84,7.84,0,0,0-1.6-5.18,5.49,5.49,0,0,0-4.4-1.85,6.22,6.22,0,0,0-4.62,2,8.88,8.88,0,0,0-2.34,5.08Z" transform="translate(-100.12 -128.06)"/><path class="cls-1" d="M183.84,163.59H180V128.06h3.85Z" transform="translate(-100.12 -128.06)"/><path class="cls-1" d="M224.69,163.59h-3.85V149.76q0-7.5-5.57-7.5a6.1,6.1,0,0,0-4.74,2.17,8.09,8.09,0,0,0-1.92,5.57v13.59h-3.84V128.06h3.84v15.52h.09a8.73,8.73,0,0,1,7.88-4.55q8.1,0,8.11,9.77Z" transform="translate(-100.12 -128.06)"/><path class="cls-1" d="M251.22,152.55H234.27a9,9,0,0,0,2.16,6.19,7.44,7.44,0,0,0,5.67,2.18,11.78,11.78,0,0,0,7.45-2.67v3.61a13.89,13.89,0,0,1-8.36,2.29,10.13,10.13,0,0,1-8-3.27q-2.91-3.27-2.91-9.19a13.14,13.14,0,0,1,3.17-9.13,10.17,10.17,0,0,1,7.89-3.53,9,9,0,0,1,7.29,3.05q2.58,3,2.58,8.46Zm-3.94-3.26a7.84,7.84,0,0,0-1.6-5.18,5.49,5.49,0,0,0-4.4-1.85,6.22,6.22,0,0,0-4.62,2,8.88,8.88,0,0,0-2.34,5.08Z" transform="translate(-100.12 -128.06)"/><path class="cls-1" d="M269.55,143.48a4.74,4.74,0,0,0-2.91-.77,4.89,4.89,0,0,0-4.11,2.32,10.76,10.76,0,0,0-1.65,6.33v12.23H257v-24h3.85v4.95H261a8.33,8.33,0,0,1,2.51-3.95,5.68,5.68,0,0,1,3.77-1.42,6.26,6.26,0,0,1,2.3.33Z" transform="translate(-100.12 -128.06)"/><path class="cls-1" d="M294.51,139.59l-9.56,24h-3.78l-9.09-24h4.22L282.39,157a15.86,15.86,0,0,1,.84,3.35h.1a15.16,15.16,0,0,1,.75-3.26l6.37-17.53Z" transform="translate(-100.12 -128.06)"/><path class="cls-1" d="M315,163.59H311.1v-3.75H311a8,8,0,0,1-7.39,4.31,7.9,7.9,0,0,1-5.61-1.89,6.6,6.6,0,0,1-2-5q0-6.74,7.93-7.83l7.19-1q0-6.12-4.94-6.12a11.83,11.83,0,0,0-7.83,3v-3.94a14.87,14.87,0,0,1,8.15-2.25q8.46,0,8.47,8.95Zm-3.85-12.14-5.79.8a9.46,9.46,0,0,0-4,1.32,3.84,3.84,0,0,0-1.36,3.37,3.67,3.67,0,0,0,1.26,2.87,4.83,4.83,0,0,0,3.34,1.11,6.19,6.19,0,0,0,4.72-2,7.18,7.18,0,0,0,1.86-5.08Z" transform="translate(-100.12 -128.06)"/><path class="cls-1" d="M333.32,163.36a7.42,7.42,0,0,1-3.59.75q-6.3,0-6.3-7V142.87H319.3v-3.28h4.13v-5.86l3.84-1.24v7.1h6.05v3.28h-6.05V156.4a5.64,5.64,0,0,0,.82,3.44,3.28,3.28,0,0,0,2.72,1,4,4,0,0,0,2.51-.79Z" transform="translate(-100.12 -128.06)"/><path class="cls-1" d="M349.59,163.36a7.45,7.45,0,0,1-3.59.75q-6.3,0-6.3-7V142.87h-4.13v-3.28h4.13v-5.86l3.84-1.24v7.1h6v3.28h-6V156.4a5.57,5.57,0,0,0,.82,3.44,3.27,3.27,0,0,0,2.72,1,4.06,4.06,0,0,0,2.51-.79Z" transform="translate(-100.12 -128.06)"/><path class="cls-1" d="M373.63,152.55H356.69a9,9,0,0,0,2.15,6.19,7.47,7.47,0,0,0,5.68,2.18,11.8,11.8,0,0,0,7.45-2.67v3.61a14,14,0,0,1-8.37,2.29,10.14,10.14,0,0,1-8-3.27q-2.91-3.27-2.91-9.19a13.1,13.1,0,0,1,3.18-9.13,10.15,10.15,0,0,1,7.89-3.53,9,9,0,0,1,7.28,3.05q2.58,3,2.58,8.46Zm-3.93-3.26a7.9,7.9,0,0,0-1.61-5.18,5.47,5.47,0,0,0-4.39-1.85,6.19,6.19,0,0,0-4.62,2,8.83,8.83,0,0,0-2.35,5.08Z" transform="translate(-100.12 -128.06)"/><path class="cls-1" d="M399.37,163.59h-3.85V149.9q0-7.64-5.57-7.64a6,6,0,0,0-4.77,2.17,8,8,0,0,0-1.89,5.47v13.69h-3.84v-24h3.84v4h.09a8.66,8.66,0,0,1,7.88-4.55,7.36,7.36,0,0,1,6,2.54q2.09,2.55,2.09,7.35Z" transform="translate(-100.12 -128.06)"/></svg>