<svg id="Terug_naar_hoofdmenu" data-name="Terug naar hoofdmenu" xmlns="http://www.w3.org/2000/svg" viewBox="0 0 245.25 91.77"><path d="M162.65,303.65H153V333.7H149V303.65h-9.68v-3.56h23.32Z" transform="translate(-127.64 -300.09)"/><path d="M181.75,322.66H164.8a9,9,0,0,0,2.16,6.18,7.42,7.42,0,0,0,5.67,2.18,11.81,11.81,0,0,0,7.46-2.67V332a14,14,0,0,1-8.37,2.3,10.13,10.13,0,0,1-8-3.27q-2.91-3.27-2.91-9.2a13.12,13.12,0,0,1,3.18-9.13,10.17,10.17,0,0,1,7.88-3.53,9,9,0,0,1,7.29,3.05q2.58,3,2.58,8.46Zm-3.94-3.26a7.8,7.8,0,0,0-1.6-5.18,5.49,5.49,0,0,0-4.4-1.85,6.21,6.21,0,0,0-4.61,1.94,8.86,8.86,0,0,0-2.35,5.09Z" transform="translate(-127.64 -300.09)"/><path d="M200.08,313.59a4.67,4.67,0,0,0-2.91-.78,4.91,4.91,0,0,0-4.11,2.32,10.76,10.76,0,0,0-1.65,6.33V333.7h-3.85v-24h3.85v4.94h.09a8.38,8.38,0,0,1,2.51-3.95,5.73,5.73,0,0,1,3.77-1.42,6.26,6.26,0,0,1,2.3.33Z" transform="translate(-127.64 -300.09)"/><path d="M223.66,333.7h-3.85v-3.8h-.09a7.89,7.89,0,0,1-7.41,4.36q-8.58,0-8.58-10.22V309.7h3.82v13.73q0,7.59,5.82,7.59A5.89,5.89,0,0,0,218,329a7.93,7.93,0,0,0,1.81-5.43V309.7h3.85Z" transform="translate(-127.64 -300.09)"/><path d="M251.9,331.77q0,13.23-12.66,13.22a17.05,17.05,0,0,1-7.78-1.68v-3.85a16,16,0,0,0,7.74,2.25q8.85,0,8.85-9.42v-2.62H248a9.72,9.72,0,0,1-15.46,1.39,12.79,12.79,0,0,1-2.73-8.59q0-6.12,2.94-9.73a9.87,9.87,0,0,1,8.06-3.61A7.82,7.82,0,0,1,248,313h.09V309.7h3.85Zm-3.85-8.93v-3.53a6.86,6.86,0,0,0-1.93-4.9,6.36,6.36,0,0,0-4.82-2,6.65,6.65,0,0,0-5.57,2.59q-2,2.58-2,7.25a10,10,0,0,0,1.93,6.41,6.26,6.26,0,0,0,5.13,2.4,6.69,6.69,0,0,0,5.26-2.29A8.56,8.56,0,0,0,248.05,322.84Z" transform="translate(-127.64 -300.09)"/><path d="M292.75,333.7h-3.84V320q0-7.63-5.58-7.64a6,6,0,0,0-4.77,2.17,8,8,0,0,0-1.89,5.47V333.7h-3.84v-24h3.84v4h.1a8.65,8.65,0,0,1,7.87-4.55,7.32,7.32,0,0,1,6,2.55q2.08,2.54,2.09,7.34Z" transform="translate(-127.64 -300.09)"/><path d="M317.17,333.7h-3.84V330h-.1a8,8,0,0,1-7.38,4.31,7.86,7.86,0,0,1-5.61-1.9,6.58,6.58,0,0,1-2-5q0-6.72,7.92-7.83l7.2-1q0-6.12-4.95-6.12a11.81,11.81,0,0,0-7.83,2.95v-3.94a14.88,14.88,0,0,1,8.16-2.25q8.46,0,8.46,9Zm-3.84-12.14-5.79.79a9.27,9.27,0,0,0-4,1.33,3.8,3.8,0,0,0-1.36,3.36,3.68,3.68,0,0,0,1.25,2.87,4.86,4.86,0,0,0,3.34,1.11,6.14,6.14,0,0,0,4.72-2,7.14,7.14,0,0,0,1.87-5.07Z" transform="translate(-127.64 -300.09)"/><path d="M341.59,333.7h-3.84V330h-.09a8.07,8.07,0,0,1-7.39,4.31,7.86,7.86,0,0,1-5.61-1.9,6.58,6.58,0,0,1-2-5q0-6.72,7.92-7.83l7.2-1q0-6.12-4.95-6.12a11.77,11.77,0,0,0-7.82,2.95v-3.94a14.85,14.85,0,0,1,8.15-2.25q8.46,0,8.46,9Zm-3.84-12.14-5.79.79a9.32,9.32,0,0,0-4,1.33,3.8,3.8,0,0,0-1.36,3.36,3.68,3.68,0,0,0,1.25,2.87,4.86,4.86,0,0,0,3.34,1.11,6.17,6.17,0,0,0,4.73-2,7.18,7.18,0,0,0,1.86-5.07Z" transform="translate(-127.64 -300.09)"/><path d="M361.35,313.59a4.66,4.66,0,0,0-2.9-.78,4.92,4.92,0,0,0-4.12,2.32,10.76,10.76,0,0,0-1.65,6.33V333.7h-3.84v-24h3.84v4.94h.09a8.46,8.46,0,0,1,2.51-3.95,5.75,5.75,0,0,1,3.77-1.42,6.26,6.26,0,0,1,2.3.33Z" transform="translate(-127.64 -300.09)"/><path d="M152.91,391.3H149V376H131.58V391.3h-3.94V357.69h3.94v14.74H149V357.69h3.94Z" transform="translate(-127.64 -300.09)"/><path d="M171.24,391.86a11.15,11.15,0,0,1-8.5-3.36,12.47,12.47,0,0,1-3.17-8.92q0-6,3.3-9.45a11.9,11.9,0,0,1,8.93-3.4q5.37,0,8.38,3.31t3,9.16a12.9,12.9,0,0,1-3.24,9.2A11.37,11.37,0,0,1,171.24,391.86Zm.28-21.89a7.31,7.31,0,0,0-5.86,2.52,10.33,10.33,0,0,0-2.16,6.95,9.79,9.79,0,0,0,2.18,6.72,7.42,7.42,0,0,0,5.84,2.46,7,7,0,0,0,5.73-2.41c1.34-1.61,2-3.9,2-6.87s-.66-5.31-2-6.93A7,7,0,0,0,171.52,370Z" transform="translate(-127.64 -300.09)"/><path d="M199.36,391.86a11.12,11.12,0,0,1-8.49-3.36,12.47,12.47,0,0,1-3.18-8.92q0-6,3.31-9.45a11.9,11.9,0,0,1,8.93-3.4c3.57,0,6.37,1.1,8.37,3.31s3,5.26,3,9.16a12.9,12.9,0,0,1-3.25,9.2A11.36,11.36,0,0,1,199.36,391.86Zm.28-21.89a7.29,7.29,0,0,0-5.85,2.52,10.33,10.33,0,0,0-2.16,6.95,9.79,9.79,0,0,0,2.18,6.72,7.4,7.4,0,0,0,5.83,2.46,7,7,0,0,0,5.74-2.41q2-2.41,2-6.87t-2-6.93A7,7,0,0,0,199.64,370Z" transform="translate(-127.64 -300.09)"/><path d="M228.45,359.14a5.14,5.14,0,0,0-2.56-.63c-2.68,0-4,1.69-4,5.08v3.71h5.63v3.28h-5.63V391.3H218V370.58h-4.1V367.3H218v-3.89a8.1,8.1,0,0,1,2.18-6,7.38,7.38,0,0,1,5.44-2.19,7.58,7.58,0,0,1,2.79.42Z" transform="translate(-127.64 -300.09)"/><path d="M252.1,391.3h-3.85v-4.08h-.09a8.88,8.88,0,0,1-8.25,4.64,9,9,0,0,1-7.23-3.22c-1.8-2.15-2.71-5.08-2.71-8.78q0-6,3-9.54a9.91,9.91,0,0,1,8-3.59,7.7,7.7,0,0,1,7.2,3.89h.09V355.76h3.85Zm-3.85-10.86v-3.53a6.9,6.9,0,0,0-1.92-4.93,6.44,6.44,0,0,0-4.87-2,6.62,6.62,0,0,0-5.53,2.58,11.23,11.23,0,0,0-2,7.12,10.14,10.14,0,0,0,1.93,6.55,6.33,6.33,0,0,0,5.2,2.4,6.55,6.55,0,0,0,5.21-2.32A8.61,8.61,0,0,0,248.25,380.44Z" transform="translate(-127.64 -300.09)"/><path d="M294,391.3h-3.85V377.51q0-4-1.23-5.76a4.66,4.66,0,0,0-4.13-1.78,5.14,5.14,0,0,0-4.19,2.25,8.58,8.58,0,0,0-1.72,5.39V391.3H275V377.05q0-7.08-5.46-7.08a5.06,5.06,0,0,0-4.18,2.12,8.78,8.78,0,0,0-1.64,5.52V391.3h-3.84v-24h3.84v3.79h.1a8.15,8.15,0,0,1,7.45-4.36,6.93,6.93,0,0,1,6.8,5,8.56,8.56,0,0,1,8-5q7.92,0,7.92,9.78Z" transform="translate(-127.64 -300.09)"/><path d="M320.51,380.26H303.57a9,9,0,0,0,2.15,6.18,7.42,7.42,0,0,0,5.67,2.18,11.81,11.81,0,0,0,7.46-2.67v3.61a14,14,0,0,1-8.37,2.3,10.14,10.14,0,0,1-8-3.27q-2.91-3.27-2.91-9.2a13.12,13.12,0,0,1,3.18-9.13,10.18,10.18,0,0,1,7.88-3.53,9,9,0,0,1,7.29,3q2.58,3,2.58,8.46ZM316.57,377a7.8,7.8,0,0,0-1.6-5.18,5.46,5.46,0,0,0-4.4-1.85,6.21,6.21,0,0,0-4.61,1.94,8.86,8.86,0,0,0-2.35,5.09Z" transform="translate(-127.64 -300.09)"/><path d="M346.25,391.3H342.4V377.61q0-7.65-5.58-7.64a6,6,0,0,0-4.77,2.17,8.06,8.06,0,0,0-1.88,5.47V391.3h-3.85v-24h3.85v4h.09a8.67,8.67,0,0,1,7.88-4.55,7.33,7.33,0,0,1,6,2.55q2.08,2.54,2.09,7.34Z" transform="translate(-127.64 -300.09)"/><path d="M372.89,391.3h-3.84v-3.8H369a7.9,7.9,0,0,1-7.41,4.36q-8.58,0-8.58-10.22V367.3h3.82V381q0,7.59,5.82,7.59a5.87,5.87,0,0,0,4.62-2.07,7.89,7.89,0,0,0,1.82-5.43V367.3h3.84Z" transform="translate(-127.64 -300.09)"/></svg>