<svg id="Layer_3" data-name="Layer 3" xmlns="http://www.w3.org/2000/svg" viewBox="0 0 586.36 515.95"><defs><style>.cls-1{font-size:21px;font-family:SegoeUI-Semilight, Segoe UI;font-weight:300;}.cls-2{letter-spacing:0.02em;}.cls-3{letter-spacing:-0.02em;}.cls-4{letter-spacing:-0.04em;}.cls-5{letter-spacing:-0.01em;}.cls-6{letter-spacing:-0.01em;}.cls-7{letter-spacing:0em;}.cls-8{letter-spacing:0em;}.cls-9{letter-spacing:-0.02em;}.cls-10{letter-spacing:-0.08em;}.cls-11{letter-spacing:0.03em;}.cls-12{letter-spacing:-0.01em;}.cls-13{letter-spacing:0.01em;}.cls-14{letter-spacing:-0.01em;}.cls-15{letter-spacing:-0.05em;}.cls-16{letter-spacing:-0.06em;}.cls-17{letter-spacing:0em;}</style></defs><text class="cls-1" transform="translate(0 17.85)">GEFELICITEERD!<tspan x="0" y="50.4">U hee</tspan><tspan class="cls-2" x="52.9" y="50.4">f</tspan><tspan x="59.46" y="50.4">t een prijs </tspan><tspan class="cls-3" x="153.61" y="50.4">v</tspan><tspan x="163.02" y="50.4">an de </tspan><tspan class="cls-4" x="219.44" y="50.4">P</tspan><tspan x="230.25" y="50.4">os</tspan><tspan class="cls-5" x="250.82" y="50.4">t</tspan><tspan x="257.22" y="50.4">codelot</tspan><tspan class="cls-6" x="325.02" y="50.4">t</tspan><tspan x="331.53" y="50.4">erij ge</tspan><tspan class="cls-7" x="387.42" y="50.4">w</tspan><tspan class="cls-8" x="402.06" y="50.4">onnen! </tspan><tspan x="0" y="75.6">Gee</tspan><tspan class="cls-2" x="35.79" y="75.6">f</tspan><tspan x="42.35" y="75.6">t u alstublie</tspan><tspan class="cls-2" x="146.31" y="75.6">f</tspan><tspan x="152.88" y="75.6">t uw </tspan><tspan class="cls-5" x="197.32" y="75.6">r</tspan><tspan x="204.16" y="75.6">e</tspan><tspan class="cls-9" x="214.94" y="75.6">k</tspan><tspan x="224.4" y="75.6">eningnummer doo</tspan><tspan class="cls-10" x="393.3" y="75.6">r</tspan><tspan x="398.8" y="75.6">, zodat wij de prijs </tspan><tspan class="cls-3" x="0" y="100.8">v</tspan><tspan x="9.4" y="100.8">an €500.000 op uw </tspan><tspan class="cls-5" x="186.9" y="100.8">r</tspan><tspan x="193.74" y="100.8">e</tspan><tspan class="cls-9" x="204.52" y="100.8">k</tspan><tspan x="213.98" y="100.8">ening kunnen s</tspan><tspan class="cls-6" x="351.57" y="100.8">t</tspan><tspan class="cls-8" x="358.08" y="100.8">o</tspan><tspan class="cls-11" x="370.12" y="100.8">r</tspan><tspan class="cls-6" x="377.84" y="100.8">t</tspan><tspan x="384.35" y="100.8">en.</tspan><tspan x="0" y="151.2">Via deze link kunt u uw gege</tspan><tspan class="cls-12" x="259.85" y="151.2">v</tspan><tspan x="269.51" y="151.2">ens doo</tspan><tspan class="cls-13" x="342.28" y="151.2">r</tspan><tspan x="349.54" y="151.2">stu</tspan><tspan class="cls-14" x="376.31" y="151.2">r</tspan><tspan x="383.15" y="151.2">en:</tspan><tspan x="0" y="176.4">ww</tspan><tspan class="cls-15" x="29.39" y="176.4">w</tspan><tspan x="43.04" y="176.4">.p0s</tspan><tspan class="cls-5" x="79.28" y="176.4">t</tspan><tspan x="85.68" y="176.4">c0d3l0</tspan><tspan class="cls-6" x="145.13" y="176.4">t</tspan><tspan x="151.65" y="176.4">erij.nl</tspan><tspan class="cls-16" x="0" y="226.8">V</tspan><tspan x="11.54" y="226.8">eel plezier met uw winst!</tspan><tspan x="0" y="277.2">De mede</tspan><tspan class="cls-17" x="82.28" y="277.2">w</tspan><tspan x="96.87" y="277.2">er</tspan><tspan class="cls-9" x="114.77" y="277.2">k</tspan><tspan x="124.23" y="277.2">e</tspan><tspan class="cls-13" x="135.01" y="277.2">r</tspan><tspan x="142.27" y="277.2">s </tspan><tspan class="cls-3" x="156.56" y="277.2">v</tspan><tspan x="165.96" y="277.2">an de </tspan><tspan class="cls-4" x="222.39" y="277.2">P</tspan><tspan x="233.19" y="277.2">os</tspan><tspan class="cls-5" x="253.76" y="277.2">t</tspan><tspan x="260.16" y="277.2">codelot</tspan><tspan class="cls-6" x="327.96" y="277.2">t</tspan><tspan x="334.47" y="277.2">erij</tspan></text></svg>