<svg id="Layer_4" data-name="Layer 4" xmlns="http://www.w3.org/2000/svg" viewBox="0 0 578.12 376.86"><defs><style>.cls-1{font-size:21px;font-family:SegoeUI-Semilight, Segoe UI;font-weight:300;}.cls-2{letter-spacing:-0.02em;}.cls-3{letter-spacing:-0.01em;}.cls-4{letter-spacing:-0.01em;}.cls-5{letter-spacing:-0.03em;}.cls-6{letter-spacing:-0.01em;}.cls-7{letter-spacing:-0.01em;}.cls-8{letter-spacing:-0.02em;}.cls-9{letter-spacing:-0.01em;}.cls-10{letter-spacing:-0.01em;}.cls-11{letter-spacing:0em;}.cls-12{letter-spacing:0em;}.cls-13{letter-spacing:-0.02em;}.cls-14{letter-spacing:-0.04em;}</style></defs><text class="cls-1" transform="translate(0 17.85)">Goedemiddag,<tspan x="0" y="50.4">Ik wil graag de datum </tspan><tspan class="cls-2" x="201.52" y="50.4">v</tspan><tspan x="210.92" y="50.4">an mijn </tspan><tspan class="cls-2" x="283.12" y="50.4">v</tspan><tspan x="292.52" y="50.4">akantie doo</tspan><tspan class="cls-3" x="399.04" y="50.4">r</tspan><tspan x="405.88" y="50.4">ge</tspan><tspan class="cls-4" x="428.73" y="50.4">v</tspan><tspan x="438.39" y="50.4">en, maar ik </tspan><tspan x="0" y="75.6">krijg </tspan><tspan class="cls-5" x="44.19" y="75.6">S</tspan><tspan class="cls-6" x="54.31" y="75.6">t</tspan><tspan x="60.83" y="75.6">efan niet </tspan><tspan class="cls-6" x="145.09" y="75.6">t</tspan><tspan x="151.6" y="75.6">e </tspan><tspan class="cls-7" x="168.14" y="75.6">p</tspan><tspan x="179.92" y="75.6">ak</tspan><tspan class="cls-8" x="200.31" y="75.6">k</tspan><tspan x="209.76" y="75.6">en. Kan jij hem e</tspan><tspan class="cls-9" x="358.3" y="75.6">v</tspan><tspan x="367.96" y="75.6">en vragen om mij een </tspan><tspan x="0" y="100.8">mail </tspan><tspan class="cls-6" x="43.33" y="100.8">t</tspan><tspan x="49.84" y="100.8">erug </tspan><tspan class="cls-6" x="97.13" y="100.8">t</tspan><tspan x="103.64" y="100.8">e stu</tspan><tspan class="cls-7" x="146.95" y="100.8">r</tspan><tspan x="153.79" y="100.8">en? Ik had namelijk beg</tspan><tspan class="cls-10" x="366.95" y="100.8">r</tspan><tspan x="373.79" y="100.8">epen dat de deadline </tspan><tspan class="cls-9" x="0" y="126">v</tspan><tspan x="9.66" y="126">oor het doo</tspan><tspan class="cls-7" x="117.51" y="126">r</tspan><tspan x="124.35" y="126">ge</tspan><tspan class="cls-9" x="147.19" y="126">v</tspan><tspan x="156.85" y="126">en </tspan><tspan class="cls-9" x="184.95" y="126">v</tspan><tspan x="194.61" y="126">olgende </tspan><tspan class="cls-11" x="274.34" y="126">w</tspan><tspan class="cls-12" x="288.93" y="126">eek is. Al</tspan><tspan class="cls-13" x="367.78" y="126">v</tspan><tspan x="377.18" y="126">ast bedan</tspan><tspan class="cls-6" x="465.63" y="126">k</tspan><tspan x="475.34" y="126">t!</tspan><tspan x="0" y="176.4">G</tspan><tspan class="cls-7" x="14.21" y="176.4">r</tspan><tspan x="21.05" y="176.4">oet,</tspan><tspan class="cls-14" x="0" y="201.6">K</tspan><tspan x="10.67" y="201.6">yle</tspan></text></svg>