<svg id="Layer_1" data-name="Layer 1" xmlns="http://www.w3.org/2000/svg" viewBox="0 0 589.77 418.22"><defs><style>.cls-1{font-size:21px;font-family:SegoeUI-Semilight, Segoe UI;font-weight:300;}.cls-2{letter-spacing:-0.01em;}.cls-3{letter-spacing:-0.01em;}.cls-4{letter-spacing:-0.04em;}.cls-5{letter-spacing:-0.02em;}.cls-6{letter-spacing:-0.02em;}.cls-7{letter-spacing:0.03em;}.cls-8{letter-spacing:0em;}.cls-9{letter-spacing:-0.01em;}.cls-10{letter-spacing:0em;}.cls-11{letter-spacing:0em;}.cls-12{letter-spacing:-0.08em;}.cls-13{letter-spacing:-0.02em;}.cls-14{letter-spacing:0em;}.cls-15{letter-spacing:-0.06em;}.cls-16{letter-spacing:0em;}.cls-17{letter-spacing:-0.02em;}.cls-18{letter-spacing:0.04em;}.cls-19{letter-spacing:0em;}.cls-20{letter-spacing:-0.04em;}.cls-21{letter-spacing:0.01em;}</style></defs><text class="cls-1" transform="translate(0 17.85)">Bes<tspan class="cls-2" x="31.05" y="0">t</tspan><tspan x="37.56" y="0">e heer/mev</tspan><tspan class="cls-3" x="140.52" y="0">r</tspan><tspan x="147.36" y="0">ou</tspan><tspan class="cls-4" x="170.96" y="0">w</tspan><tspan x="184.73" y="0">,</tspan><tspan x="0" y="50.4">Bij deze willen wij u vragen </tspan><tspan class="cls-5" x="247.49" y="50.4">o</tspan><tspan x="259.15" y="50.4">f de meeting </tspan><tspan class="cls-6" x="379.66" y="50.4">v</tspan><tspan x="389.06" y="50.4">an 1 maa</tspan><tspan class="cls-7" x="469.23" y="50.4">r</tspan><tspan class="cls-8" x="476.95" y="50.4">t a.s. </tspan><tspan class="cls-9" x="523.39" y="50.4">v</tspan><tspan x="533.05" y="50.4">er</tspan><tspan x="550.95" y="50.4">-</tspan><tspan x="0" y="75.6">plaatst kan </tspan><tspan class="cls-10" x="103.12" y="75.6">w</tspan><tspan x="117.76" y="75.6">o</tspan><tspan class="cls-3" x="129.79" y="75.6">r</tspan><tspan x="136.63" y="75.6">den naar uw kan</tspan><tspan class="cls-2" x="286.22" y="75.6">t</tspan><tspan class="cls-11" x="292.73" y="75.6">oo</tspan><tspan class="cls-12" x="316.8" y="75.6">r</tspan><tspan x="322.3" y="75.6">, aangezien wij </tspan><tspan class="cls-2" x="460.35" y="75.6">t</tspan><tspan x="466.86" y="75.6">e ma</tspan><tspan class="cls-13" x="511.59" y="75.6">k</tspan><tspan x="521.04" y="75.6">en </tspan><tspan x="0" y="100.8">zullen hebben met </tspan><tspan class="cls-14" x="174.09" y="100.8">w</tspan><tspan x="188.68" y="100.8">erkzaamheden op deze dag.</tspan><tspan class="cls-15" x="0" y="151.2">V</tspan><tspan x="11.54" y="151.2">e</tspan><tspan class="cls-3" x="22.32" y="151.2">r</tspan><tspan x="29.16" y="151.2">der wilden wij </tspan><tspan class="cls-2" x="158.96" y="151.2">t</tspan><tspan x="165.47" y="151.2">oes</tspan><tspan class="cls-2" x="196.82" y="151.2">t</tspan><tspan x="203.33" y="151.2">emming vragen om een aantal </tspan><tspan class="cls-6" x="485.68" y="151.2">v</tspan><tspan class="cls-16" x="495.08" y="151.2">an onze </tspan><tspan x="0" y="176.4">stagai</tspan><tspan class="cls-3" x="53" y="176.4">r</tspan><tspan x="59.84" y="176.4">es mee </tspan><tspan class="cls-2" x="129.91" y="176.4">t</tspan><tspan x="136.42" y="176.4">e nemen naar deze meeting. Dit zou </tspan><tspan class="cls-9" x="470.65" y="176.4">v</tspan><tspan class="cls-8" x="480.31" y="176.4">oor hen </tspan><tspan x="0" y="201.6">een unie</tspan><tspan class="cls-17" x="77.49" y="201.6">k</tspan><tspan x="86.94" y="201.6">e e</tspan><tspan class="cls-18" x="114.27" y="201.6">r</tspan><tspan class="cls-5" x="122.23" y="201.6">v</tspan><tspan x="131.63" y="201.6">aring zijn.</tspan><tspan x="0" y="226.8">Wij hopen spoedig </tspan><tspan class="cls-5" x="176.06" y="226.8">v</tspan><tspan x="185.46" y="226.8">an u </tspan><tspan class="cls-2" x="230.61" y="226.8">t</tspan><tspan x="237.12" y="226.8">e ho</tspan><tspan class="cls-3" x="277.26" y="226.8">r</tspan><tspan x="284.09" y="226.8">en.</tspan><tspan x="0" y="277.2">Met vriendelij</tspan><tspan class="cls-17" x="122.26" y="277.2">k</tspan><tspan x="131.71" y="277.2">e g</tspan><tspan class="cls-3" x="160.31" y="277.2">r</tspan><tspan x="167.15" y="277.2">oet,</tspan><tspan class="cls-3" x="0" y="327.6">J</tspan><tspan x="6.87" y="327.6">an </tspan><tspan class="cls-15" x="34.7" y="327.6">V</tspan><tspan x="46.23" y="327.6">ee</tspan><tspan class="cls-19" x="67.81" y="327.6">r</tspan><tspan x="74.88" y="327.6">man</tspan><tspan class="cls-20" x="0" y="352.8">W</tspan><tspan x="18.43" y="352.8">a</tspan><tspan class="cls-2" x="28.95" y="352.8">t</tspan><tspan x="35.46" y="352.8">e</tspan><tspan class="cls-21" x="46.25" y="352.8">r</tspan><tspan x="53.5" y="352.8">schap </tspan><tspan class="cls-3" x="111.42" y="352.8">AG</tspan><tspan x="138.44" y="352.8">V</tspan></text></svg>