<svg id="Layer_11" data-name="Layer 11" xmlns="http://www.w3.org/2000/svg" viewBox="0 0 591.27 479.7"><defs><style>.cls-1{font-size:21px;font-family:SegoeUI-Semilight, Segoe UI;font-weight:300;}.cls-2{letter-spacing:-0.01em;}.cls-3{letter-spacing:-0.06em;}.cls-4{letter-spacing:-0.01em;}.cls-5{letter-spacing:-0.02em;}.cls-6{letter-spacing:-0.01em;}.cls-7{letter-spacing:-0.01em;}.cls-8{letter-spacing:0.02em;}.cls-9{letter-spacing:0em;}.cls-10{letter-spacing:0em;}.cls-11{letter-spacing:-0.02em;}.cls-12{letter-spacing:0.02em;}.cls-13{letter-spacing:-0.02em;}.cls-14{letter-spacing:-0.02em;}.cls-15{letter-spacing:-0.02em;}.cls-16{letter-spacing:-0.1em;}.cls-17{letter-spacing:0.04em;}.cls-18{letter-spacing:0.01em;}.cls-19{letter-spacing:-0.04em;}.cls-20{letter-spacing:0.01em;}.cls-21{letter-spacing:-0.01em;}.cls-22{letter-spacing:-0.04em;}</style></defs><text class="cls-1" transform="translate(0 17.85)">Bes<tspan class="cls-2" x="31.05" y="0">t</tspan><tspan x="37.56" y="0">e collega</tspan><tspan class="cls-3" x="118.4" y="0">’</tspan><tspan x="121.85" y="0">s,</tspan><tspan x="0" y="50.4">Mogelijk hebben jullie het al gehoo</tspan><tspan class="cls-4" x="318.41" y="50.4">r</tspan><tspan x="325.25" y="50.4">d, maar tijdens de brand </tspan><tspan class="cls-5" x="551.65" y="50.4">v</tspan><tspan x="561.05" y="50.4">an </tspan><tspan x="0" y="75.6">gis</tspan><tspan class="cls-2" x="25.29" y="75.6">t</tspan><tspan x="31.8" y="75.6">e</tspan><tspan class="cls-6" x="42.58" y="75.6">r</tspan><tspan x="49.42" y="75.6">ena</tspan><tspan class="cls-7" x="82.29" y="75.6">v</tspan><tspan x="91.95" y="75.6">ond hee</tspan><tspan class="cls-8" x="166.48" y="75.6">f</tspan><tspan x="173.04" y="75.6">t ons kan</tspan><tspan class="cls-2" x="255.3" y="75.6">t</tspan><tspan x="261.81" y="75.6">oo</tspan><tspan class="cls-6" x="285.89" y="75.6">r</tspan><tspan class="cls-9" x="292.73" y="75.6">gebouw schade opgelopen en is </tspan><tspan x="0" y="100.8">het niet mogelijk om daar </tspan><tspan class="cls-2" x="237.93" y="100.8">t</tspan><tspan x="244.44" y="100.8">e </tspan><tspan class="cls-10" x="260.98" y="100.8">w</tspan><tspan x="275.57" y="100.8">er</tspan><tspan class="cls-11" x="293.48" y="100.8">k</tspan><tspan x="302.93" y="100.8">en. De di</tspan><tspan class="cls-4" x="383.36" y="100.8">r</tspan><tspan x="390.2" y="100.8">ectie hee</tspan><tspan class="cls-12" x="471.54" y="100.8">f</tspan><tspan x="478.1" y="100.8">t beslo</tspan><tspan class="cls-2" x="538.63" y="100.8">t</tspan><tspan x="545.14" y="100.8">en </tspan><tspan x="0" y="126">om </tspan><tspan class="cls-7" x="35.46" y="126">v</tspan><tspan x="45.12" y="126">oorlopig </tspan><tspan class="cls-13" x="127.6" y="126">v</tspan><tspan x="137" y="126" xml:space="preserve">anuit  huis </tspan><tspan class="cls-2" x="235.62" y="126">t</tspan><tspan x="242.14" y="126">e </tspan><tspan class="cls-10" x="258.68" y="126">w</tspan><tspan x="273.27" y="126">er</tspan><tspan class="cls-14" x="291.17" y="126">k</tspan><tspan x="300.62" y="126">en en contact </tspan><tspan class="cls-2" x="429.04" y="126">t</tspan><tspan x="435.56" y="126">e houden via de </tspan><tspan x="0" y="151.2">mail en </tspan><tspan class="cls-2" x="71.43" y="151.2">t</tspan><tspan x="77.94" y="151.2">elefoon. De </tspan><tspan class="cls-10" x="187.36" y="151.2">w</tspan><tspan x="201.95" y="151.2">e</tspan><tspan class="cls-14" x="212.74" y="151.2">k</tspan><tspan x="222.19" y="151.2">elijkse mar</tspan><tspan class="cls-15" x="317.32" y="151.2">k</tspan><tspan x="326.77" y="151.2">eting-meeting zal plaatsvin</tspan><tspan x="570.52" y="151.2">-</tspan><tspan x="0" y="176.4">den via Mic</tspan><tspan class="cls-6" x="103.28" y="176.4">r</tspan><tspan x="110.12" y="176.4">os</tspan><tspan class="cls-13" x="130.69" y="176.4">o</tspan><tspan class="cls-8" x="142.34" y="176.4">f</tspan><tspan x="148.91" y="176.4">t </tspan><tspan class="cls-16" x="161.33" y="176.4">T</tspan><tspan x="170.04" y="176.4">eams, hie</tspan><tspan class="cls-17" x="254.94" y="176.4">r</tspan><tspan class="cls-7" x="262.9" y="176.4">v</tspan><tspan x="272.56" y="176.4">oor is een link bijge</tspan><tspan class="cls-7" x="448.23" y="176.4">v</tspan><tspan x="457.89" y="176.4">oegd in deze </tspan><tspan x="0" y="201.6">mail. B</tspan><tspan class="cls-18" x="59.67" y="201.6">E</tspan><tspan class="cls-19" x="70.53" y="201.6">W</tspan><tspan x="88.97" y="201.6">AAR DEZE GOED!</tspan><tspan x="0" y="252">https://</tspan><tspan class="cls-2" x="65.96" y="252">t</tspan><tspan x="72.47" y="252">eams.mic</tspan><tspan class="cls-6" x="156.45" y="252">r</tspan><tspan x="163.29" y="252">os</tspan><tspan class="cls-13" x="183.86" y="252">o</tspan><tspan class="cls-8" x="195.52" y="252">f</tspan><tspan x="202.08" y="252">t.com/I/chat/use</tspan><tspan class="cls-20" x="350.72" y="252">r</tspan><tspan x="357.98" y="252">s=same@example.com</tspan><tspan x="0" y="302.4">Moch</tspan><tspan class="cls-2" x="51.27" y="302.4">t</tspan><tspan x="57.78" y="302.4">en jullie vragen hebben </tspan><tspan class="cls-13" x="274.88" y="302.4">o</tspan><tspan x="286.54" y="302.4">f e</tspan><tspan class="cls-4" x="309.26" y="302.4">r</tspan><tspan x="316.1" y="302.4">gens </tspan><tspan class="cls-2" x="364.78" y="302.4">t</tspan><tspan x="371.29" y="302.4">egenaan lopen tijdens </tspan><tspan x="0" y="327.6">het thuis</tspan><tspan class="cls-10" x="77.8" y="327.6">w</tspan><tspan x="92.39" y="327.6">er</tspan><tspan class="cls-14" x="110.29" y="327.6">k</tspan><tspan x="119.75" y="327.6">en, dan kunnen jullie </tspan><tspan class="cls-2" x="311.87" y="327.6">t</tspan><tspan x="318.38" y="327.6">e</tspan><tspan class="cls-21" x="329.17" y="327.6">r</tspan><tspan x="336.01" y="327.6">echt bij HR.</tspan><tspan class="cls-22" x="0" y="378">V</tspan><tspan x="12.08" y="378">riendelij</tspan><tspan class="cls-14" x="83.17" y="378">k</tspan><tspan x="92.62" y="378">e g</tspan><tspan class="cls-6" x="121.22" y="378">r</tspan><tspan x="128.06" y="378">oet,</tspan><tspan x="0" y="428.4">Samuel de Leeuw </tspan><tspan class="cls-22" x="0" y="453.6">P</tspan><tspan x="10.81" y="453.6">e</tspan><tspan class="cls-20" x="21.59" y="453.6">r</tspan><tspan x="28.85" y="453.6">soneelsza</tspan><tspan class="cls-14" x="115.92" y="453.6">k</tspan><tspan x="125.37" y="453.6">en</tspan></text></svg>