<svg id="Layer_10" data-name="Layer 10" xmlns="http://www.w3.org/2000/svg" viewBox="0 0 606.75 384.02"><defs><style>.cls-1{font-size:21px;font-family:SegoeUI-Semilight, Segoe UI;font-weight:300;}.cls-2{letter-spacing:-0.01em;}.cls-3{letter-spacing:-0.01em;}.cls-4{letter-spacing:-0.04em;}.cls-5{letter-spacing:-0.01em;}.cls-6{letter-spacing:0em;}.cls-7{letter-spacing:-0.01em;}.cls-8{letter-spacing:-0.02em;}.cls-9{letter-spacing:0.04em;}.cls-10{letter-spacing:0em;}.cls-11{letter-spacing:-0.01em;}.cls-12{letter-spacing:-0.02em;}.cls-13{letter-spacing:-0.02em;}.cls-14{letter-spacing:0em;}.cls-15{letter-spacing:-0.02em;}.cls-16{letter-spacing:0.01em;}.cls-17{letter-spacing:-0.06em;}.cls-18{letter-spacing:-0.01em;}.cls-19{letter-spacing:-0.04em;}.cls-20{letter-spacing:-0.02em;}</style></defs><text class="cls-1" transform="translate(0 17.85)">Bes<tspan class="cls-2" x="31.05" y="0">t</tspan><tspan x="37.56" y="0">e meneer/mev</tspan><tspan class="cls-3" x="168.97" y="0">r</tspan><tspan x="175.81" y="0">ou</tspan><tspan class="cls-4" x="199.42" y="0">w</tspan><tspan x="213.19" y="0">,</tspan><tspan x="0" y="50.4">Er is een fout ge</tspan><tspan class="cls-5" x="146.35" y="50.4">v</tspan><tspan x="156.01" y="50.4">onden in de gelogde </tspan><tspan class="cls-6" x="350.6" y="50.4">w</tspan><tspan x="365.19" y="50.4">erku</tspan><tspan class="cls-7" x="404.54" y="50.4">r</tspan><tspan x="411.37" y="50.4">en </tspan><tspan class="cls-8" x="439.47" y="50.4">v</tspan><tspan x="448.87" y="50.4">an afgelopen </tspan><tspan class="cls-6" x="0" y="75.6">w</tspan><tspan x="14.59" y="75.6">ee</tspan><tspan class="cls-9" x="36.17" y="75.6">k</tspan><tspan x="46.88" y="75.6">. Ik raad aan om contact op </tspan><tspan class="cls-2" x="299.9" y="75.6">t</tspan><tspan x="306.41" y="75.6">e nemen met Ingrid </tspan><tspan class="cls-8" x="490.36" y="75.6">v</tspan><tspan class="cls-10" x="499.76" y="75.6">an de IT </tspan><tspan x="0" y="100.8">om het p</tspan><tspan class="cls-3" x="82.28" y="100.8">r</tspan><tspan x="89.12" y="100.8">obleem op </tspan><tspan class="cls-2" x="192.73" y="100.8">t</tspan><tspan x="199.24" y="100.8">e lossen. Zij is </tspan><tspan class="cls-2" x="328.37" y="100.8">t</tspan><tspan x="334.88" y="100.8">e be</tspan><tspan class="cls-11" x="374.26" y="100.8">r</tspan><tspan x="381.1" y="100.8">ei</tspan><tspan class="cls-12" x="396.58" y="100.8">k</tspan><tspan x="406.03" y="100.8">en via I.Bos</tspan><tspan x="506.98" y="100.8">-</tspan><tspan x="0" y="126">man@bedrijfsnaam.nl </tspan><tspan class="cls-13" x="202.67" y="126">o</tspan><tspan x="214.33" y="126">f via 072- 123 45 67 tijdens kan</tspan><tspan class="cls-2" x="492.1" y="126">t</tspan><tspan class="cls-14" x="498.61" y="126">ooru</tspan><tspan class="cls-11" x="541.37" y="126">r</tspan><tspan x="548.21" y="126">en.</tspan><tspan x="0" y="176.4">P</tspan><tspan class="cls-3" x="11.59" y="176.4">r</tspan><tspan x="18.43" y="176.4">obeer om het p</tspan><tspan class="cls-3" x="159.23" y="176.4">r</tspan><tspan x="166.07" y="176.4">obleem opgelost </tspan><tspan class="cls-2" x="324.47" y="176.4">t</tspan><tspan x="330.99" y="176.4">e hebben </tspan><tspan class="cls-5" x="422.06" y="176.4">v</tspan><tspan x="431.72" y="176.4">oor het einde </tspan><tspan class="cls-15" x="559.07" y="176.4">v</tspan><tspan class="cls-14" x="568.48" y="176.4">an </tspan><tspan x="0" y="201.6">de maand, ande</tspan><tspan class="cls-16" x="146.2" y="201.6">r</tspan><tspan x="153.46" y="201.6">s kan dit mogelijk ge</tspan><tspan class="cls-5" x="339.74" y="201.6">v</tspan><tspan x="349.4" y="201.6">olgen hebben op het salaris </tspan><tspan class="cls-13" x="0" y="226.8">v</tspan><tspan x="9.4" y="226.8">an deze maand. </tspan><tspan class="cls-17" x="158.92" y="226.8">V</tspan><tspan x="170.45" y="226.8">oor vragen hie</tspan><tspan class="cls-11" x="302.01" y="226.8">r</tspan><tspan class="cls-14" x="308.85" y="226.8">o</tspan><tspan class="cls-18" x="320.89" y="226.8">v</tspan><tspan x="330.55" y="226.8">er kan je het bes</tspan><tspan class="cls-2" x="479.28" y="226.8">t</tspan><tspan x="485.79" y="226.8">e contact </tspan><tspan x="0" y="252">opnemen met de di</tspan><tspan class="cls-3" x="178.43" y="252">r</tspan><tspan x="185.27" y="252">ectie.</tspan><tspan class="cls-19" x="0" y="302.4">V</tspan><tspan x="12.08" y="302.4">riendelij</tspan><tspan class="cls-20" x="83.17" y="302.4">k</tspan><tspan x="92.62" y="302.4">e g</tspan><tspan class="cls-3" x="121.22" y="302.4">r</tspan><tspan x="128.06" y="302.4">oet,</tspan><tspan x="0" y="327.6">Liesbeth Moesman</tspan><tspan class="cls-19" x="0" y="352.8">P</tspan><tspan x="10.81" y="352.8">e</tspan><tspan class="cls-16" x="21.59" y="352.8">r</tspan><tspan x="28.85" y="352.8">soneelsza</tspan><tspan class="cls-20" x="115.92" y="352.8">k</tspan><tspan x="125.37" y="352.8">en</tspan></text></svg>