<svg id="Layer_7" data-name="Layer 7" xmlns="http://www.w3.org/2000/svg" viewBox="0 0 601.49 454.5"><defs><style>.cls-1{font-size:21px;font-family:SegoeUI-Semilight, Segoe UI;font-weight:300;}.cls-2{letter-spacing:-0.01em;}.cls-3{letter-spacing:-0.01em;}.cls-4{letter-spacing:-0.04em;}.cls-5{letter-spacing:-0.07em;}.cls-6{letter-spacing:0.03em;}.cls-7{letter-spacing:-0.01em;}.cls-8{letter-spacing:-0.01em;}.cls-9{letter-spacing:0.03em;}.cls-10{letter-spacing:0em;}.cls-11{letter-spacing:0em;}.cls-12{letter-spacing:-0.02em;}.cls-13{letter-spacing:-0.01em;}.cls-14{letter-spacing:-0.01em;}.cls-15{letter-spacing:-0.02em;}.cls-16{letter-spacing:0.02em;}.cls-17{letter-spacing:-0.02em;}.cls-18{letter-spacing:0em;}.cls-19{letter-spacing:-0.01em;}.cls-20{letter-spacing:0.03em;}.cls-21{letter-spacing:0.02em;}.cls-22{letter-spacing:-0.01em;}.cls-23{letter-spacing:0em;}.cls-24{letter-spacing:0.04em;}</style></defs><text class="cls-1" transform="translate(0 17.85)">Bes<tspan class="cls-2" x="31.05" y="0">t</tspan><tspan x="37.56" y="0">e meneer/mev</tspan><tspan class="cls-3" x="168.97" y="0">r</tspan><tspan x="175.81" y="0">ou</tspan><tspan class="cls-4" x="199.42" y="0">w</tspan><tspan x="213.19" y="0">,</tspan><tspan class="cls-5" x="0" y="50.4">V</tspan><tspan x="11.35" y="50.4">anmiddag hebben wij uw po</tspan><tspan class="cls-6" x="268.71" y="50.4">r</tspan><tspan class="cls-2" x="276.44" y="50.4">t</tspan><tspan x="282.95" y="50.4">emonnee ge</tspan><tspan class="cls-7" x="396.72" y="50.4">v</tspan><tspan x="406.38" y="50.4">onden bij Amazing </tspan><tspan x="0" y="75.6">Oriental Dui</tspan><tspan class="cls-7" x="108.4" y="75.6">v</tspan><tspan x="118.06" y="75.6">end</tspan><tspan class="cls-3" x="152.47" y="75.6">r</tspan><tspan x="159.3" y="75.6">echt. Dit e-mailad</tspan><tspan class="cls-8" x="319.07" y="75.6">r</tspan><tspan x="325.91" y="75.6">es s</tspan><tspan class="cls-2" x="359.51" y="75.6">t</tspan><tspan x="366.02" y="75.6">ond op uw visi</tspan><tspan class="cls-2" x="496.98" y="75.6">t</tspan><tspan x="503.49" y="75.6">ekaa</tspan><tspan class="cls-9" x="545.2" y="75.6">r</tspan><tspan class="cls-10" x="552.92" y="75.6">tje. </tspan><tspan x="0" y="126">Mocht u uw po</tspan><tspan class="cls-6" x="137.12" y="126">r</tspan><tspan class="cls-2" x="144.84" y="126">t</tspan><tspan x="151.35" y="126">emonnee willen ophalen, dan kunt u onze meest </tspan><tspan x="0" y="151.2">actuele openingstijden vinden op onze </tspan><tspan class="cls-11" x="355.56" y="151.2">w</tspan><tspan x="370.15" y="151.2">ebsi</tspan><tspan class="cls-2" x="406.22" y="151.2">t</tspan><tspan x="412.73" y="151.2">e: https://amazin</tspan><tspan x="564.41" y="151.2">-</tspan><tspan x="0" y="176.4">goriental.com/Location/win</tspan><tspan class="cls-12" x="247.56" y="176.4">k</tspan><tspan x="257.01" y="176.4">els-dui</tspan><tspan class="cls-13" x="317.73" y="176.4">v</tspan><tspan x="327.39" y="176.4">end</tspan><tspan class="cls-8" x="361.79" y="176.4">r</tspan><tspan x="368.63" y="176.4">echt/</tspan><tspan x="0" y="226.8">E</tspan><tspan class="cls-7" x="10.56" y="226.8">v</tspan><tspan x="20.22" y="226.8">entueel kunnen wij de po</tspan><tspan class="cls-6" x="248" y="226.8">r</tspan><tspan class="cls-2" x="255.72" y="226.8">t</tspan><tspan x="262.23" y="226.8">emonnee ook als brie</tspan><tspan class="cls-14" x="457.02" y="226.8">v</tspan><tspan x="466.67" y="226.8">enbus</tspan><tspan class="cls-8" x="521.17" y="226.8">p</tspan><tspan x="532.94" y="226.8">ak</tspan><tspan class="cls-15" x="553.33" y="226.8">k</tspan><tspan x="562.79" y="226.8">etje </tspan><tspan x="0" y="252">naar u opstu</tspan><tspan class="cls-3" x="113.64" y="252">r</tspan><tspan x="120.48" y="252">en, hoe</tspan><tspan class="cls-11" x="187.56" y="252">w</tspan><tspan x="202.16" y="252">el u dan zelf de </tspan><tspan class="cls-14" x="346.23" y="252">v</tspan><tspan x="355.89" y="252">e</tspan><tspan class="cls-16" x="366.68" y="252">r</tspan><tspan x="374.2" y="252">zend</tspan><tspan class="cls-17" x="418.21" y="252">k</tspan><tspan class="cls-18" x="427.67" y="252">os</tspan><tspan class="cls-19" x="448.24" y="252">t</tspan><tspan x="454.75" y="252">en zal moe</tspan><tspan class="cls-19" x="553.93" y="252">t</tspan><tspan x="560.44" y="252">en </tspan><tspan x="0" y="277.2">betalen. Mocht u dit lie</tspan><tspan class="cls-7" x="207.81" y="277.2">v</tspan><tspan x="217.46" y="277.2">er willen, stuu</tspan><tspan class="cls-20" x="340.94" y="277.2">r</tspan><tspan class="cls-18" x="348.66" y="277.2">t u dan alstublie</tspan><tspan class="cls-21" x="492.51" y="277.2">f</tspan><tspan x="499.08" y="277.2">t een </tspan><tspan x="0" y="302.4">e-mail </tspan><tspan class="cls-2" x="62.5" y="302.4">t</tspan><tspan x="69.01" y="302.4">erug naar ons met het ad</tspan><tspan class="cls-8" x="297.87" y="302.4">r</tspan><tspan x="304.7" y="302.4">es waar het naa</tspan><tspan class="cls-9" x="445.75" y="302.4">r</tspan><tspan class="cls-2" x="453.47" y="302.4">t</tspan><tspan x="459.98" y="302.4">oe gestuu</tspan><tspan class="cls-22" x="549.74" y="302.4">r</tspan><tspan x="556.58" y="302.4">d </tspan><tspan x="0" y="327.6">moet </tspan><tspan class="cls-23" x="52.92" y="327.6">w</tspan><tspan x="67.55" y="327.6">o</tspan><tspan class="cls-3" x="79.59" y="327.6">r</tspan><tspan x="86.43" y="327.6">den.</tspan><tspan x="0" y="378">Met vriendelij</tspan><tspan class="cls-12" x="122.26" y="378">k</tspan><tspan x="131.71" y="378">e g</tspan><tspan class="cls-3" x="160.31" y="378">r</tspan><tspan x="167.15" y="378">oet,</tspan><tspan x="0" y="428.4">Klan</tspan><tspan class="cls-2" x="38.39" y="428.4">t</tspan><tspan x="44.9" y="428.4">ense</tspan><tspan class="cls-24" x="86.56" y="428.4">r</tspan><tspan x="94.52" y="428.4">vice Amazing Oriental</tspan></text></svg>