<svg id="Layer_9" data-name="Layer 9" xmlns="http://www.w3.org/2000/svg" viewBox="0 0 601.19 465.92"><defs><style>.cls-1{font-size:21px;font-family:SegoeUI-Semilight, Segoe UI;font-weight:300;}.cls-2{letter-spacing:-0.01em;}.cls-3{letter-spacing:-0.08em;}.cls-4{letter-spacing:-0.01em;}.cls-5{letter-spacing:-0.04em;}.cls-6{letter-spacing:-0.01em;}.cls-7{letter-spacing:-0.02em;}.cls-8{letter-spacing:0em;}.cls-9{letter-spacing:-0.02em;}.cls-10{letter-spacing:-0.01em;}.cls-11{letter-spacing:0.02em;}.cls-12{letter-spacing:-0.02em;}.cls-13{letter-spacing:0em;}.cls-14{letter-spacing:0.01em;}.cls-15{letter-spacing:0.04em;}.cls-16{letter-spacing:-0.05em;}.cls-17{letter-spacing:-0.04em;}</style></defs><text class="cls-1" transform="translate(0 17.85)">Bes<tspan class="cls-2" x="31.05" y="0">t</tspan><tspan x="37.56" y="0">e menee</tspan><tspan class="cls-3" x="115.68" y="0">r</tspan><tspan x="121.18" y="0">, mev</tspan><tspan class="cls-4" x="169.77" y="0">r</tspan><tspan x="176.61" y="0">ou</tspan><tspan class="cls-5" x="200.22" y="0">w</tspan><tspan x="213.99" y="0">,</tspan><tspan x="0" y="50.4">Er is een fout opget</tspan><tspan class="cls-4" x="177.12" y="50.4">r</tspan><tspan x="183.96" y="50.4">eden met het bezo</tspan><tspan class="cls-6" x="355.04" y="50.4">r</tspan><tspan x="361.88" y="50.4">gen </tspan><tspan class="cls-7" x="402.03" y="50.4">v</tspan><tspan class="cls-8" x="411.44" y="50.4">an uw </tspan><tspan class="cls-6" x="471.28" y="50.4">p</tspan><tspan x="483.05" y="50.4">ak</tspan><tspan class="cls-9" x="503.44" y="50.4">k</tspan><tspan x="512.9" y="50.4">et. Wij </tspan><tspan x="0" y="75.6">willen u </tspan><tspan class="cls-10" x="74.2" y="75.6">v</tspan><tspan x="83.86" y="75.6">e</tspan><tspan class="cls-11" x="94.64" y="75.6">r</tspan><tspan x="102.16" y="75.6">zoe</tspan><tspan class="cls-12" x="134.6" y="75.6">k</tspan><tspan x="144.06" y="75.6">en naar onze </tspan><tspan class="cls-13" x="267.37" y="75.6">w</tspan><tspan x="281.96" y="75.6">ebsi</tspan><tspan class="cls-2" x="318.02" y="75.6">t</tspan><tspan x="324.54" y="75.6">e </tspan><tspan class="cls-2" x="341.07" y="75.6">t</tspan><tspan x="347.59" y="75.6">e gaan en uw gege</tspan><tspan class="cls-10" x="520.33" y="75.6">v</tspan><tspan x="529.99" y="75.6">ens </tspan><tspan class="cls-2" x="566.62" y="75.6">t</tspan><tspan x="573.13" y="75.6">e </tspan><tspan x="0" y="100.8">cont</tspan><tspan class="cls-4" x="39.77" y="100.8">r</tspan><tspan x="46.61" y="100.8">ole</tspan><tspan class="cls-4" x="74.14" y="100.8">r</tspan><tspan x="80.98" y="100.8">en. Doet u dit via onde</tspan><tspan class="cls-14" x="287.06" y="100.8">r</tspan><tspan x="294.32" y="100.8">staande lin</tspan><tspan class="cls-15" x="391.67" y="100.8">k</tspan><tspan x="402.38" y="100.8">:</tspan><tspan x="0" y="126">ww</tspan><tspan class="cls-16" x="29.39" y="126">w</tspan><tspan x="43.04" y="126">.p0stnl.com/55498043/</tspan><tspan class="cls-17" x="0" y="176.4">V</tspan><tspan x="12.08" y="176.4">riendelij</tspan><tspan class="cls-12" x="83.17" y="176.4">k</tspan><tspan x="92.62" y="176.4">e g</tspan><tspan class="cls-4" x="121.22" y="176.4">r</tspan><tspan x="128.06" y="176.4">oet,</tspan><tspan x="0" y="226.8">Klan</tspan><tspan class="cls-2" x="38.39" y="226.8">t</tspan><tspan x="44.9" y="226.8">ense</tspan><tspan class="cls-15" x="86.56" y="226.8">r</tspan><tspan x="94.52" y="226.8">vice postNL</tspan></text></svg>