<svg id="Layer_5" data-name="Layer 5" xmlns="http://www.w3.org/2000/svg" viewBox="0 0 586.08 380.04"><defs><style>.cls-1{font-size:21px;font-family:SegoeUI-Semilight, Segoe UI;font-weight:300;}.cls-2{letter-spacing:-0.01em;}.cls-3{letter-spacing:-0.01em;}.cls-4{letter-spacing:-0.04em;}.cls-5{letter-spacing:0.04em;}.cls-6{letter-spacing:-0.01em;}.cls-7{letter-spacing:0em;}.cls-8{letter-spacing:-0.01em;}.cls-9{letter-spacing:-0.02em;}.cls-10{letter-spacing:-0.1em;}</style></defs><text class="cls-1" transform="translate(0 17.85)">Bes<tspan class="cls-2" x="31.05" y="0">t</tspan><tspan x="37.56" y="0">e meneer/mev</tspan><tspan class="cls-3" x="168.97" y="0">r</tspan><tspan x="175.81" y="0">ou</tspan><tspan class="cls-4" x="199.42" y="0">w</tspan><tspan x="213.19" y="0">,</tspan><tspan x="0" y="50.4">Er is een fout opget</tspan><tspan class="cls-3" x="177.12" y="50.4">r</tspan><tspan x="183.96" y="50.4">eden met uw data-cloud. Kli</tspan><tspan class="cls-2" x="437.17" y="50.4">k</tspan><tspan x="446.88" y="50.4">t u op onder</tspan><tspan x="560.02" y="50.4">-</tspan><tspan x="0" y="75.6">staande link om contact op </tspan><tspan class="cls-2" x="250.5" y="75.6">t</tspan><tspan x="257.01" y="75.6">e nemen met onze IT-se</tspan><tspan class="cls-5" x="476.05" y="75.6">r</tspan><tspan x="484.01" y="75.6">vice:</tspan><tspan x="0" y="126">https://loginl1</tspan><tspan class="cls-6" x="123.58" y="126">v</tspan><tspan x="133.24" y="126">e.com/h3lp/</tspan><tspan x="0" y="176.4">Mocht deze mail u niet </tspan><tspan class="cls-6" x="212.82" y="176.4">v</tspan><tspan x="222.48" y="176.4">oldoende hebben geinfo</tspan><tspan class="cls-7" x="446.11" y="176.4">r</tspan><tspan x="453.18" y="176.4">mee</tspan><tspan class="cls-8" x="492.43" y="176.4">r</tspan><tspan x="499.27" y="176.4">d, belt u </tspan><tspan x="0" y="201.6">dan onze klan</tspan><tspan class="cls-2" x="126.29" y="201.6">t</tspan><tspan x="132.8" y="201.6">ense</tspan><tspan class="cls-5" x="174.46" y="201.6">r</tspan><tspan x="182.42" y="201.6">vice.</tspan><tspan x="0" y="252">Met vriendelij</tspan><tspan class="cls-9" x="122.26" y="252">k</tspan><tspan x="131.71" y="252">e g</tspan><tspan class="cls-3" x="160.31" y="252">r</tspan><tspan x="167.15" y="252">oet,</tspan><tspan x="0" y="302.4">Se</tspan><tspan class="cls-5" x="21.58" y="302.4">r</tspan><tspan x="29.54" y="302.4">vice </tspan><tspan class="cls-10" x="70.06" y="302.4">T</tspan><tspan x="78.77" y="302.4">eam DoCloud</tspan></text></svg>