<svg id="Layer_8" data-name="Layer 8" xmlns="http://www.w3.org/2000/svg" viewBox="0 0 605.87 381.63"><defs><style>.cls-1{font-size:21px;font-family:SegoeUI-Semilight, Segoe UI;font-weight:300;}.cls-2{letter-spacing:-0.01em;}.cls-3{letter-spacing:-0.06em;}.cls-4{letter-spacing:-0.01em;}.cls-5{letter-spacing:0em;}.cls-6{letter-spacing:-0.01em;}.cls-7{letter-spacing:-0.02em;}.cls-8{letter-spacing:0.04em;}.cls-9{letter-spacing:-0.01em;}.cls-10{letter-spacing:0em;}.cls-11{letter-spacing:-0.01em;}.cls-12{letter-spacing:0em;}.cls-13{letter-spacing:-0.02em;}.cls-14{letter-spacing:0em;}.cls-15{letter-spacing:-0.02em;}.cls-16{letter-spacing:0em;}.cls-17{letter-spacing:-0.01em;}</style></defs><text class="cls-1" transform="translate(2.31 17.85)">Bes<tspan class="cls-2" x="31.05" y="0">t</tspan><tspan x="37.56" y="0">e collega</tspan><tspan class="cls-3" x="118.4" y="0">’</tspan><tspan x="121.85" y="0">s,</tspan><tspan x="0" y="50.4">Op vrijdag 19 mei zal er een bedrijfsfeest zijn om ons jubileum </tspan><tspan class="cls-2" x="565.07" y="50.4">t</tspan><tspan x="571.58" y="50.4">e </tspan><tspan x="0" y="75.6">vie</tspan><tspan class="cls-4" x="25.27" y="75.6">r</tspan><tspan x="32.1" y="75.6">en. Aan</tspan><tspan class="cls-5" x="100.24" y="75.6">w</tspan><tspan x="114.83" y="75.6">ezigheid is niet </tspan><tspan class="cls-6" x="255.29" y="75.6">v</tspan><tspan x="264.95" y="75.6">erplicht, maar om 13:00 uur willen wij </tspan><tspan x="0" y="100.8">een gezamelij</tspan><tspan class="cls-7" x="124.41" y="100.8">k</tspan><tspan x="133.86" y="100.8">e lunch plannen. </tspan><tspan x="0" y="151.2">Om in </tspan><tspan class="cls-2" x="61.33" y="151.2">t</tspan><tspan x="67.84" y="151.2">e schat</tspan><tspan class="cls-2" x="131.17" y="151.2">t</tspan><tspan x="137.68" y="151.2">en hoe</tspan><tspan class="cls-6" x="200.16" y="151.2">v</tspan><tspan x="209.82" y="151.2">eel in</tspan><tspan class="cls-7" x="258.09" y="151.2">k</tspan><tspan x="267.54" y="151.2">open hie</tspan><tspan class="cls-8" x="346.77" y="151.2">r</tspan><tspan class="cls-9" x="354.72" y="151.2">v</tspan><tspan class="cls-10" x="364.38" y="151.2">oor gedaan moe</tspan><tspan class="cls-11" x="515.08" y="151.2">t</tspan><tspan x="521.59" y="151.2">en </tspan><tspan class="cls-12" x="0" y="176.4">w</tspan><tspan x="14.63" y="176.4">o</tspan><tspan class="cls-4" x="26.67" y="176.4">r</tspan><tspan x="33.51" y="176.4">den, wil ik jullie daa</tspan><tspan class="cls-4" x="208.42" y="176.4">r</tspan><tspan x="215.26" y="176.4">om vragen om via de mail aan </tspan><tspan class="cls-2" x="494.78" y="176.4">t</tspan><tspan x="501.29" y="176.4">e ge</tspan><tspan class="cls-6" x="540.68" y="176.4">v</tspan><tspan x="550.34" y="176.4">en </tspan><tspan class="cls-13" x="578.43" y="176.4">o</tspan><tspan class="cls-14" x="590.09" y="176.4">f </tspan><tspan x="0" y="201.6">je aan</tspan><tspan class="cls-5" x="53.83" y="201.6">w</tspan><tspan x="68.42" y="201.6">ezig bent en </tspan><tspan class="cls-15" x="186.25" y="201.6">o</tspan><tspan x="197.91" y="201.6">f er </tspan><tspan class="cls-4" x="233.5" y="201.6">r</tspan><tspan x="240.34" y="201.6">e</tspan><tspan class="cls-7" x="251.13" y="201.6">k</tspan><tspan x="260.58" y="201.6">ening gehouden moet </tspan><tspan class="cls-16" x="468.07" y="201.6">w</tspan><tspan class="cls-10" x="482.7" y="201.6">o</tspan><tspan class="cls-17" x="494.74" y="201.6">r</tspan><tspan x="501.58" y="201.6">den met </tspan><tspan x="0" y="226.8">alle</tspan><tspan class="cls-4" x="30.7" y="226.8">r</tspan><tspan x="37.54" y="226.8">gieën, dieet</tspan><tspan class="cls-5" x="142.79" y="226.8">w</tspan><tspan x="157.38" y="226.8">ensen, e</tspan><tspan class="cls-4" x="231.74" y="226.8">t</tspan><tspan x="238.14" y="226.8">c.</tspan><tspan x="0" y="277.2">Met vriendelij</tspan><tspan class="cls-7" x="122.26" y="277.2">k</tspan><tspan x="131.71" y="277.2">e g</tspan><tspan class="cls-4" x="160.31" y="277.2">r</tspan><tspan x="167.15" y="277.2">oet,</tspan><tspan x="0" y="327.6">Bas de G</tspan><tspan class="cls-4" x="79.34" y="327.6">r</tspan><tspan x="86.18" y="327.6">oot</tspan><tspan x="0" y="352.8">Di</tspan><tspan class="cls-4" x="19.13" y="352.8">r</tspan><tspan x="25.97" y="352.8">ectie</tspan></text></svg>