<svg id="Layer_6" data-name="Layer 6" xmlns="http://www.w3.org/2000/svg" viewBox="0 0 578.12 408.67"><defs><style>.cls-1{font-size:21px;font-family:SegoeUI-Semilight, Segoe UI;font-weight:300;}.cls-2{letter-spacing:-0.01em;}.cls-3{letter-spacing:-0.01em;}.cls-4{letter-spacing:0.04em;}.cls-5{letter-spacing:-0.02em;}.cls-6{letter-spacing:0em;}.cls-7{letter-spacing:0em;}.cls-8{letter-spacing:-0.01em;}.cls-9{letter-spacing:0.03em;}.cls-10{letter-spacing:-0.01em;}.cls-11{letter-spacing:-0.02em;}.cls-12{letter-spacing:-0.02em;}.cls-13{letter-spacing:-0.01em;}.cls-14{letter-spacing:-0.02em;}.cls-15{letter-spacing:-0.05em;}.cls-16{letter-spacing:0.02em;}.cls-17{letter-spacing:-0.01em;}.cls-18{letter-spacing:0em;}.cls-19{letter-spacing:-0.04em;}</style></defs><text class="cls-1" transform="translate(0 17.85)">Goedemo<tspan class="cls-2" x="89.59" y="0">r</tspan><tspan x="96.43" y="0">gen,</tspan><tspan x="0" y="50.4">Mijn doch</tspan><tspan class="cls-3" x="90.03" y="50.4">t</tspan><tspan x="96.54" y="50.4">er is op zoek naar een stageple</tspan><tspan class="cls-4" x="377.54" y="50.4">k</tspan><tspan x="388.25" y="50.4">. Ik heb uw bedrijf </tspan><tspan x="0" y="75.6">aangeraden omdat ik </tspan><tspan class="cls-5" x="198.27" y="75.6">k</tspan><tspan x="207.72" y="75.6">ennissen heb bij HR, en ik </tspan><tspan class="cls-6" x="444.26" y="75.6">w</tspan><tspan x="458.85" y="75.6">eet dat uw </tspan><tspan class="cls-7" x="0" y="100.8">w</tspan><tspan x="14.59" y="100.8">erkzaamheden aanslui</tspan><tspan class="cls-3" x="215.28" y="100.8">t</tspan><tspan x="221.79" y="100.8">en bij haar studie.</tspan><tspan x="0" y="151.2">Ik </tspan><tspan class="cls-8" x="20.82" y="151.2">v</tspan><tspan x="30.47" y="151.2">e</tspan><tspan class="cls-9" x="41.26" y="151.2">r</tspan><tspan x="48.98" y="151.2">t</tspan><tspan class="cls-2" x="55.66" y="151.2">r</tspan><tspan x="62.5" y="151.2">ouw e</tspan><tspan class="cls-2" x="117.34" y="151.2">r</tspan><tspan x="124.17" y="151.2">op dat zij zelf een e-mail zal stu</tspan><tspan class="cls-10" x="409.56" y="151.2">r</tspan><tspan x="416.4" y="151.2">en met haar CV </tspan><tspan x="0" y="176.4">en moti</tspan><tspan class="cls-11" x="69.17" y="176.4">v</tspan><tspan x="78.58" y="176.4">atie, maar bij deze stuur ik al</tspan><tspan class="cls-12" x="336.13" y="176.4">v</tspan><tspan x="345.54" y="176.4">ast een link naar haar </tspan><tspan x="0" y="201.6">po</tspan><tspan class="cls-9" x="24.09" y="201.6">r</tspan><tspan x="31.81" y="201.6">tfolio</tspan><tspan class="cls-7" x="78.13" y="201.6">w</tspan><tspan x="92.73" y="201.6">ebsi</tspan><tspan class="cls-3" x="128.79" y="201.6">t</tspan><tspan x="135.3" y="201.6">e om u een beeld </tspan><tspan class="cls-3" x="299.63" y="201.6">t</tspan><tspan x="306.14" y="201.6">e ge</tspan><tspan class="cls-13" x="345.53" y="201.6">v</tspan><tspan x="355.19" y="201.6">en </tspan><tspan class="cls-14" x="383.28" y="201.6">v</tspan><tspan x="392.68" y="201.6">an haar </tspan><tspan class="cls-7" x="465.98" y="201.6">w</tspan><tspan x="480.57" y="201.6">er</tspan><tspan class="cls-4" x="498.47" y="201.6">k</tspan><tspan x="509.19" y="201.6">.</tspan><tspan x="0" y="252">ww</tspan><tspan class="cls-15" x="29.39" y="252">w</tspan><tspan x="43.04" y="252">.k3lly</tspan><tspan class="cls-5" x="87.8" y="252">k</tspan><tspan x="97.26" y="252">eppel.nl/540905498/</tspan><tspan x="0" y="302.4">Ik hoop dat u haar stage</tspan><tspan class="cls-8" x="220.61" y="302.4">v</tspan><tspan x="230.27" y="302.4">e</tspan><tspan class="cls-16" x="241.06" y="302.4">r</tspan><tspan x="248.58" y="302.4">zoek o</tspan><tspan class="cls-17" x="308.68" y="302.4">v</tspan><tspan x="318.34" y="302.4">e</tspan><tspan class="cls-4" x="329.13" y="302.4">r</tspan><tspan class="cls-18" x="337.09" y="302.4">w</tspan><tspan x="351.68" y="302.4">eegt.</tspan><tspan class="cls-19" x="0" y="352.8">V</tspan><tspan x="12.08" y="352.8">riendelij</tspan><tspan class="cls-5" x="83.17" y="352.8">k</tspan><tspan x="92.62" y="352.8">e g</tspan><tspan class="cls-2" x="121.22" y="352.8">r</tspan><tspan x="128.06" y="352.8">oet,</tspan><tspan class="cls-2" x="0" y="378">K</tspan><tspan x="11.34" y="378">ees </tspan><tspan class="cls-11" x="47.2" y="378">v</tspan><tspan x="56.6" y="378">an </tspan><tspan class="cls-2" x="84.43" y="378">K</tspan><tspan x="95.77" y="378">eppel</tspan></text></svg>