<svg xmlns="http://www.w3.org/2000/svg" viewBox="0 0 472.08 349.91"><defs><style>.cls-1{fill:#5c7aff;stroke:#bcc5d8;stroke-miterlimit:10;stroke-width:4px;}.cls-2{fill:#f2f2f2;}</style></defs><g id="Terug_naar_hoofdmenu" data-name="Terug naar hoofdmenu"><rect class="cls-1" x="2" y="197.85" width="468.08" height="150.07"/><path class="cls-2" d="M118,304.82H107.85v-4.06H133v4.06H122.81V332.2H118Z" transform="translate(-13.96 -71.87)"/><path class="cls-2" d="M137.91,320.43a11.83,11.83,0,0,1,12-12.26c6.88,0,10.8,4.52,10.8,11.07a18,18,0,0,1-.22,2.59h-19.3v-3.5h16.32l-1,1.17c0-5.08-2.46-7.63-6.43-7.63s-7.48,3-7.48,8.56c0,5.76,3.62,8.6,8.66,8.6A12.77,12.77,0,0,0,158.1,327l1.68,3a16.62,16.62,0,0,1-9.14,2.78C143.53,332.77,137.91,328.24,137.91,320.43Z" transform="translate(-13.96 -71.87)"/><path class="cls-2" d="M170.2,308.74h4l.43,5.44h.12c2.42-3.82,6-6,10.22-6a9.71,9.71,0,0,1,4.59,1l-1,4.06a11.89,11.89,0,0,0-4.3-.75c-3.36,0-6.6,1.71-9.19,6.45V332.2H170.2Z" transform="translate(-13.96 -71.87)"/><path class="cls-2" d="M195.91,323.29V308.74h4.78v13.93c0,4.05,1.36,6,4.89,6,2.44,0,4.22-1.08,6.56-3.86V308.74h4.78V332.2H213l-.38-3.91h-.2c-2.29,2.65-5,4.48-8.51,4.48C198.39,332.77,195.91,329.4,195.91,323.29Z" transform="translate(-13.96 -71.87)"/><path class="cls-2" d="M224.41,336.41c0-1.89,1.32-3.69,3.8-5.08v-.19a4.33,4.33,0,0,1-2.4-3.9,5.75,5.75,0,0,1,2.8-4.39v-.19a7.39,7.39,0,0,1-3-6.07c0-5.25,4.38-8.42,9.44-8.42a10.29,10.29,0,0,1,3.57.57h9.66v3.73H242.6a6.54,6.54,0,0,1,1.73,4.29c0,5.12-4.06,8-9.23,8a10.28,10.28,0,0,1-3.77-.77,2.9,2.9,0,0,0-1.62,2.45c0,1.68,1.64,2.45,4.64,2.45h5c6.06,0,9.08,1.6,9.08,5.62,0,4.52-5.16,8.27-13.28,8.27C228.51,342.79,224.41,340.57,224.41,336.41Zm19.42-1.11c0-2-1.7-2.58-5-2.58h-4.16a13.53,13.53,0,0,1-3.57-.36c-1.95,1.08-2.65,2.26-2.65,3.48,0,2.28,2.56,3.66,7.23,3.66C240.66,339.5,243.83,337.5,243.83,335.3ZM240,316.59a4.92,4.92,0,1,0-4.92,5.12A4.82,4.82,0,0,0,240,316.59Z" transform="translate(-13.96 -71.87)"/><path class="cls-2" d="M283,308.74h3.91l.38,3.74h.19c2.35-2.41,5-4.31,8.64-4.31,5.48,0,8,3.37,8,9.48V332.2h-4.78V318.27c0-4.09-1.37-6-4.85-6-2.55,0-4.27,1.25-6.69,3.73V332.2H283Z" transform="translate(-13.96 -71.87)"/><path class="cls-2" d="M311.21,326c0-5.25,4.77-7.84,16.61-8.73-.17-2.9-1.72-5.23-5.89-5.23-2.84,0-5.64,1.3-7.93,2.64l-1.83-3.19a21.08,21.08,0,0,1,10.61-3.32c6.46,0,9.82,3.71,9.82,9.9V332.2h-3.94l-.38-3.05h-.16c-2.51,2-5.77,3.62-9,3.62C314.66,332.77,311.21,330.14,311.21,326Zm16.61-.18v-5.49c-9.21.66-11.94,2.51-11.94,5.32,0,2.35,2.11,3.32,4.62,3.32S325.39,327.8,327.82,325.82Z" transform="translate(-13.96 -71.87)"/><path class="cls-2" d="M340,326c0-5.25,4.77-7.84,16.61-8.73-.17-2.9-1.72-5.23-5.89-5.23-2.84,0-5.64,1.3-7.93,2.64L341,311.49a21.08,21.08,0,0,1,10.61-3.32c6.46,0,9.82,3.71,9.82,9.9V332.2h-3.94l-.38-3.05h-.16c-2.51,2-5.77,3.62-9,3.62C343.46,332.77,340,330.14,340,326Zm16.61-.18v-5.49c-9.21.66-11.94,2.51-11.94,5.32,0,2.35,2.11,3.32,4.62,3.32S354.19,327.8,356.62,325.82Z" transform="translate(-13.96 -71.87)"/><path class="cls-2" d="M371.79,308.74h4l.43,5.44h.11c2.43-3.82,6-6,10.22-6a9.73,9.73,0,0,1,4.6,1l-1,4.06a11.89,11.89,0,0,0-4.3-.75c-3.36,0-6.6,1.71-9.19,6.45V332.2h-4.79Z" transform="translate(-13.96 -71.87)"/><path class="cls-2" d="M124,358.36h4.86v12.87h11.87V358.36h4.86V389.8h-4.86V375.46H128.87V389.8H124Z" transform="translate(-13.96 -71.87)"/><path class="cls-2" d="M151.92,378.11c0-7.85,5.5-12.34,11.68-12.34s11.69,4.49,11.69,12.34-5.51,12.26-11.69,12.26S151.92,385.88,151.92,378.11Zm18.47,0c0-5.06-2.64-8.41-6.79-8.41s-6.78,3.35-6.78,8.41,2.63,8.33,6.78,8.33S170.39,383.12,170.39,378.11Z" transform="translate(-13.96 -71.87)"/><path class="cls-2" d="M180.72,378.11c0-7.85,5.5-12.34,11.68-12.34s11.68,4.49,11.68,12.34-5.5,12.26-11.68,12.26S180.72,385.88,180.72,378.11Zm18.47,0c0-5.06-2.64-8.41-6.79-8.41s-6.78,3.35-6.78,8.41,2.63,8.33,6.78,8.33S199.19,383.12,199.19,378.11Z" transform="translate(-13.96 -71.87)"/><path class="cls-2" d="M211.49,366.59l6.7-.25h13.95v3.82H211.49Zm6.57-1.87c0-5.61,3-9.53,9.73-9.53a18.56,18.56,0,0,1,6.85,1.32l-1,3.55A12.92,12.92,0,0,0,228.3,359c-3.88,0-5.5,2.08-5.5,5.61V389.8h-4.74Z" transform="translate(-13.96 -71.87)"/><path class="cls-2" d="M238.32,378.11c0-7.64,5-12.34,10.46-12.34a9.44,9.44,0,0,1,6.75,2.86h.12l-.23-4.12v-8.75h4.78v34h-3.91l-.38-2.91h-.15a10.91,10.91,0,0,1-7.37,3.48C242.33,390.37,238.32,385.88,238.32,378.11Zm17.1,5.14v-11.1a7.88,7.88,0,0,0-5.55-2.4c-3.66,0-6.65,3.18-6.65,8.3,0,5.34,2.36,8.34,6.28,8.34C251.62,386.39,253.57,385.38,255.42,383.25Z" transform="translate(-13.96 -71.87)"/><path class="cls-2" d="M266.9,366.34h3.72l.38,3h.12c1.12-2.1,2.58-3.61,5.28-3.61,2.24,0,3.7,1.34,4.35,4,1.21-2.4,2.72-4,5.41-4,3.3,0,5.22,2.64,5.22,7.32V389.8h-4.65V373.43c0-2.37-.66-3.58-2.18-3.58s-2.25,1.08-3.34,3.26V389.8h-4.13V373.43c0-2.37-.61-3.58-2.14-3.58s-2.37,1.08-3.39,3.26V389.8H266.9Z" transform="translate(-13.96 -71.87)"/><path class="cls-2" d="M296.3,378a11.84,11.84,0,0,1,12-12.26c6.89,0,10.8,4.52,10.8,11.07a18.23,18.23,0,0,1-.21,2.59h-19.3v-3.5h16.32l-1,1.17c0-5.08-2.46-7.63-6.43-7.63S301,372.5,301,378c0,5.76,3.62,8.6,8.66,8.6a12.77,12.77,0,0,0,6.85-2.06l1.67,3a16.56,16.56,0,0,1-9.13,2.78C301.93,390.37,296.3,385.84,296.3,378Z" transform="translate(-13.96 -71.87)"/><path class="cls-2" d="M326.21,366.34h3.91l.38,3.74h.19c2.35-2.41,5-4.31,8.64-4.31,5.48,0,8,3.37,8,9.48V389.8h-4.78V375.87c0-4.09-1.37-6-4.85-6-2.55,0-4.27,1.26-6.69,3.74V389.8h-4.78Z" transform="translate(-13.96 -71.87)"/><path class="cls-2" d="M354.31,380.89V366.34h4.78v13.93c0,4.05,1.36,6,4.88,6,2.45,0,4.23-1.08,6.57-3.87v-16h4.78V389.8h-3.94l-.39-3.91h-.19c-2.29,2.65-5,4.48-8.52,4.48C356.79,390.37,354.31,387,354.31,380.89Z" transform="translate(-13.96 -71.87)"/></g><g id="Start_Spel" data-name="Start Spel"><rect class="cls-1" x="2" y="2" width="468.08" height="150.07"/><path class="cls-2" d="M51.41,158.05l2.83-3.32a13.29,13.29,0,0,0,9,3.72c4,0,6.19-1.83,6.19-4.36,0-3.07-2.3-3.93-5.41-5.24l-4.44-1.95c-3.21-1.26-6.73-3.59-6.73-8.22,0-4.9,4.41-8.6,10.62-8.6A14.11,14.11,0,0,1,73.33,134l-2.49,3.08a11.09,11.09,0,0,0-7.59-2.81c-3.31,0-5.53,1.54-5.53,4.11,0,2.73,2.71,3.72,5.48,4.8l4.26,1.88c4,1.53,6.89,3.83,6.89,8.42,0,5.05-4.26,9.17-11.39,9.17A16.52,16.52,0,0,1,51.41,158.05Z" transform="translate(-13.96 -71.87)"/><path class="cls-2" d="M81.41,138.64h3.91l.38,2.83h.15a12,12,0,0,1,7.81-3.41c6.2,0,9.63,4.68,9.63,12,0,8-5,12.65-10.54,12.65a10.37,10.37,0,0,1-6.67-2.91H86l.23,4.27v7.64H81.41Zm17,11.4c0-4.91-1.79-8-6-8-1.92,0-4.06.95-6.19,3.13v11.1a8.8,8.8,0,0,0,5.65,2.4C95.57,158.68,98.39,155.58,98.39,150Z" transform="translate(-13.96 -71.87)"/><path class="cls-2" d="M109.11,150.33a11.84,11.84,0,0,1,12-12.27c6.88,0,10.8,4.52,10.8,11.07a18.32,18.32,0,0,1-.22,2.6h-19.3v-3.5h16.32l-1,1.16c0-5.08-2.45-7.63-6.43-7.63s-7.48,3-7.48,8.57c0,5.76,3.62,8.6,8.66,8.6a12.77,12.77,0,0,0,6.85-2.07l1.68,3a16.6,16.6,0,0,1-9.14,2.79C114.73,162.67,109.11,158.14,109.11,150.33Z" transform="translate(-13.96 -71.87)"/><path class="cls-2" d="M146.11,153.88v-22h-8.06v-3.81h12.84v26.11c0,3.25,1.84,4.57,4.42,4.57a10.4,10.4,0,0,0,4.2-1l1.15,3.55a15.38,15.38,0,0,1-6.46,1.37C148.94,162.67,146.11,159.54,146.11,153.88Z" transform="translate(-13.96 -71.87)"/><path class="cls-2" d="M196.61,128.06h4.78v9l-.29,5.28h.16c2.2-2.39,4.89-4.3,8.48-4.3,5.48,0,8,3.37,8,9.48v14.55h-4.78V148.17c0-4.1-1.37-6-4.85-6-2.55,0-4.27,1.26-6.69,3.74v16.17h-4.78Z" transform="translate(-13.96 -71.87)"/><path class="cls-2" d="M224.31,150.33a11.84,11.84,0,0,1,12-12.27c6.88,0,10.8,4.52,10.8,11.07a18.32,18.32,0,0,1-.22,2.6h-19.3v-3.5h16.32l-1,1.16c0-5.08-2.46-7.63-6.43-7.63s-7.48,3-7.48,8.57c0,5.76,3.62,8.6,8.66,8.6a12.77,12.77,0,0,0,6.85-2.07l1.68,3a16.63,16.63,0,0,1-9.14,2.79C229.93,162.67,224.31,158.14,224.31,150.33Z" transform="translate(-13.96 -71.87)"/><path class="cls-2" d="M256.59,138.64h4l.43,5.44h.11c2.43-3.82,6-6,10.22-6a9.85,9.85,0,0,1,4.6,1l-1,4.06a11.89,11.89,0,0,0-4.3-.75c-3.36,0-6.6,1.72-9.19,6.45v13.31h-4.79Z" transform="translate(-13.96 -71.87)"/><path class="cls-2" d="M281,138.64h4.86l4.95,12.69c.88,2.36,1.69,4.7,2.48,7h.19c.79-2.32,1.52-4.66,2.44-7l4.95-12.69h4.6L296,162.09h-5.4Z" transform="translate(-13.96 -71.87)"/><path class="cls-2" d="M311.21,155.9c0-5.26,4.77-7.85,16.61-8.74-.17-2.9-1.72-5.23-5.89-5.23a16.29,16.29,0,0,0-7.93,2.65l-1.83-3.19a21.08,21.08,0,0,1,10.61-3.33c6.46,0,9.82,3.71,9.82,9.91v14.12h-3.94l-.38-3h-.16c-2.51,2-5.77,3.62-9,3.62C314.66,162.67,311.21,160,311.21,155.9Zm16.61-.18v-5.49c-9.21.66-11.94,2.51-11.94,5.31,0,2.35,2.11,3.33,4.62,3.33S325.39,157.69,327.82,155.72Z" transform="translate(-13.96 -71.87)"/><path class="cls-2" d="M345.9,152.81V142.45h-6.47v-3.56l6.65-.25.63-7.44h4v7.44h11.06v3.81H350.68v10.38c0,4,1.43,6,5.67,6a14.94,14.94,0,0,0,5.34-1l1,3.49a21.55,21.55,0,0,1-7.43,1.37C348.23,162.67,345.9,158.7,345.9,152.81Z" transform="translate(-13.96 -71.87)"/><path class="cls-2" d="M374.7,152.81V142.45h-6.47v-3.56l6.65-.25.63-7.44h4v7.44h11.06v3.81H379.48v10.38c0,4,1.43,6,5.67,6a14.94,14.94,0,0,0,5.34-1l1,3.49a21.44,21.44,0,0,1-7.42,1.37C377,162.67,374.7,158.7,374.7,152.81Z" transform="translate(-13.96 -71.87)"/><path class="cls-2" d="M397.1,150.33a11.84,11.84,0,0,1,12-12.27c6.89,0,10.8,4.52,10.8,11.07a18.53,18.53,0,0,1-.21,2.6h-19.3v-3.5h16.32l-1,1.16c0-5.08-2.46-7.63-6.43-7.63s-7.48,3-7.48,8.57c0,5.76,3.62,8.6,8.66,8.6a12.77,12.77,0,0,0,6.85-2.07l1.67,3a16.57,16.57,0,0,1-9.13,2.79C402.73,162.67,397.1,158.14,397.1,150.33Z" transform="translate(-13.96 -71.87)"/><path class="cls-2" d="M427,138.64h3.92l.38,3.74h.19c2.35-2.41,5-4.32,8.64-4.32,5.48,0,8,3.37,8,9.48v14.55h-4.78V148.17c0-4.1-1.37-6-4.85-6-2.55,0-4.27,1.26-6.69,3.74v16.17H427Z" transform="translate(-13.96 -71.87)"/></g></svg>