<svg xmlns="http://www.w3.org/2000/svg" viewBox="0 0 369.15 405.1"><defs><style>.cls-1{fill:#5c7aff;stroke:#bcc5d8;stroke-miterlimit:10;stroke-width:4px;}.cls-2{fill:#f2f2f2;}</style></defs><g id="sluit"><rect class="cls-1" x="2" y="287" width="362.15" height="116.1"/><path class="cls-2" d="M160.86,402.5l3.54-4.15A16.59,16.59,0,0,0,175.63,403c5,0,7.74-2.29,7.74-5.45,0-3.85-2.87-4.91-6.77-6.56l-5.54-2.43c-4-1.58-8.41-4.49-8.41-10.27,0-6.13,5.51-10.76,13.27-10.76a17.66,17.66,0,0,1,12.34,4.93l-3.11,3.85a13.88,13.88,0,0,0-9.49-3.51c-4.14,0-6.92,1.92-6.92,5.13,0,3.41,3.39,4.66,6.85,6l5.33,2.35c4.93,1.92,8.61,4.79,8.61,10.53,0,6.31-5.32,11.46-14.23,11.46A20.64,20.64,0,0,1,160.86,402.5Z" transform="translate(-64.03 -45.17)"/><path class="cls-2" d="M207.23,397.29v-27.5H197.16V365h16.05v32.63c0,4.07,2.3,5.71,5.53,5.71a12.92,12.92,0,0,0,5.24-1.23l1.44,4.44a19.26,19.26,0,0,1-8.08,1.71C210.78,408.28,207.23,404.36,207.23,397.29Z" transform="translate(-64.03 -45.17)"/><path class="cls-2" d="M233.49,396.43V378.24h6v17.4c0,5.07,1.7,7.49,6.11,7.49,3.05,0,5.28-1.36,8.21-4.84V378.24h6v29.32h-4.93l-.48-4.89h-.24c-2.86,3.32-6.2,5.61-10.65,5.61C236.59,408.28,233.49,404.06,233.49,396.43Z" transform="translate(-64.03 -45.17)"/><path class="cls-2" d="M283.43,383H270.32v-4.77h19.09v29.32h-6Zm-1.95-14.75a4.46,4.46,0,0,1,8.91,0,4.46,4.46,0,0,1-8.91,0Z" transform="translate(-64.03 -45.17)"/><path class="cls-2" d="M313,396V383h-8.08v-4.46l8.31-.31L314,369h4.95v9.29h13.84V383H318.94v13c0,5,1.79,7.49,7.09,7.49a18.61,18.61,0,0,0,6.68-1.26l1.22,4.37a27.19,27.19,0,0,1-9.28,1.71C315.88,408.28,313,403.32,313,396Z" transform="translate(-64.03 -45.17)"/></g><g id="opties"><rect class="cls-1" x="4.67" y="146.62" width="362.15" height="116.1"/><path class="cls-2" d="M144.5,247.46c0-12.81,6.28-20.18,15.27-20.18s15.28,7.37,15.28,20.18c0,13-6.28,20.55-15.28,20.55S144.5,260.48,144.5,247.46Zm24.33,0c0-9.44-3.6-14.92-9.06-14.92s-9.05,5.48-9.05,14.92c0,9.66,3.6,15.28,9.05,15.28S168.83,257.12,168.83,247.46Z" transform="translate(-64.03 -45.17)"/><path class="cls-2" d="M183,238h4.89l.47,3.54h.19a15,15,0,0,1,9.77-4.26c7.75,0,12,5.85,12,14.95,0,10-6.24,15.81-13.17,15.81a13,13,0,0,1-8.35-3.64h-.14l.29,5.34v9.55h-6Zm21.23,14.25c0-6.14-2.24-10-7.52-10-2.4,0-5.07,1.18-7.73,3.91V260a11,11,0,0,0,7.05,3C200.73,263,204.26,259.15,204.26,252.22Z" transform="translate(-64.03 -45.17)"/><path class="cls-2" d="M225.64,255.69V242.74h-8.08v-4.46l8.32-.31.78-9.29h5V238h13.83v4.77H231.62v13c0,5,1.78,7.48,7.09,7.48a18.65,18.65,0,0,0,6.68-1.26l1.21,4.37a27,27,0,0,1-9.28,1.71C228.56,268,225.64,263.05,225.64,255.69Z" transform="translate(-64.03 -45.17)"/><path class="cls-2" d="M268.1,242.74H255V238h19.09v29.32h-6ZM266.16,228a4.45,4.45,0,0,1,8.9,0,4.46,4.46,0,0,1-8.9,0Z" transform="translate(-64.03 -45.17)"/><path class="cls-2" d="M289.65,252.58c0-9.55,7.19-15.33,15-15.33,8.6,0,13.5,5.65,13.5,13.84a21.44,21.44,0,0,1-.28,3.24H293.79V250h20.4l-1.3,1.46c0-6.36-3.07-9.54-8-9.54-5.13,0-9.34,3.79-9.34,10.7,0,7.2,4.52,10.75,10.82,10.75a15.93,15.93,0,0,0,8.56-2.58l2.1,3.78A20.81,20.81,0,0,1,305.57,268C296.68,268,289.65,262.34,289.65,252.58Z" transform="translate(-64.03 -45.17)"/><path class="cls-2" d="M325.75,263.45l2.66-3.87a21.3,21.3,0,0,0,12.49,3.84c4.5,0,6.65-1.79,6.65-4s-1.22-3.39-8.6-4.91c-7.74-1.6-11.38-4.28-11.38-8.72,0-4.9,4.41-8.55,12.53-8.55a22.49,22.49,0,0,1,12,3.81l-2.81,3.73a17.64,17.64,0,0,0-9.76-3c-4.36,0-6.05,1.72-6.05,3.73,0,2.29,2.34,3.19,8.09,4.42,9.54,2.09,11.93,4.54,11.93,9.13,0,4.91-4.75,8.94-13.4,8.94A26.18,26.18,0,0,1,325.75,263.45Z" transform="translate(-64.03 -45.17)"/></g><g id="start"><rect class="cls-1" x="5" y="2" width="362.15" height="116.1"/><path class="cls-2" d="M169.79,115.81l3.53-4.15a16.55,16.55,0,0,0,11.23,4.66c5,0,7.74-2.29,7.74-5.45,0-3.84-2.87-4.91-6.77-6.55L180,101.89c-4-1.59-8.41-4.49-8.41-10.28,0-6.12,5.51-10.75,13.27-10.75a17.61,17.61,0,0,1,12.34,4.93l-3.11,3.84a13.88,13.88,0,0,0-9.49-3.5c-4.14,0-6.92,1.91-6.92,5.13,0,3.41,3.39,4.65,6.86,6l5.32,2.35c4.93,1.92,8.62,4.79,8.62,10.53,0,6.31-5.33,11.46-14.24,11.46A20.62,20.62,0,0,1,169.79,115.81Z" transform="translate(-64.03 -45.17)"/><path class="cls-2" d="M213.89,109.27v-13h-8.08V91.86l8.32-.31.78-9.29h5v9.29H233.7v4.77H219.87v13c0,5,1.78,7.48,7.08,7.48a18.83,18.83,0,0,0,6.68-1.25l1.22,4.36a27,27,0,0,1-9.28,1.71C216.81,121.59,213.89,116.63,213.89,109.27Z" transform="translate(-64.03 -45.17)"/><path class="cls-2" d="M242.53,113.13c0-6.57,6-9.81,20.77-10.92-.22-3.62-2.16-6.53-7.37-6.53-3.55,0-7,1.62-9.91,3.3l-2.29-4A26.41,26.41,0,0,1,257,90.83c8.08,0,12.28,4.64,12.28,12.38v17.66h-4.93l-.48-3.8h-.19c-3.13,2.45-7.21,4.52-11.22,4.52C246.84,121.59,242.53,118.29,242.53,113.13Zm20.77-.23V106c-11.52.82-14.93,3.14-14.93,6.64,0,2.94,2.64,4.16,5.78,4.16S260.26,115.37,263.3,112.9Z" transform="translate(-64.03 -45.17)"/><path class="cls-2" d="M282.26,91.55h4.95l.54,6.8h.14c3-4.77,7.54-7.52,12.77-7.52a12.37,12.37,0,0,1,5.75,1.2l-1.31,5.08a14.74,14.74,0,0,0-5.36-.94c-4.21,0-8.26,2.14-11.5,8.06v16.64h-6Z" transform="translate(-64.03 -45.17)"/><path class="cls-2" d="M321.89,109.27v-13h-8.08V91.86l8.31-.31.79-9.29h5v9.29H341.7v4.77H327.87v13c0,5,1.78,7.48,7.08,7.48a18.83,18.83,0,0,0,6.68-1.25l1.22,4.36a27,27,0,0,1-9.28,1.71C324.8,121.59,321.89,116.63,321.89,109.27Z" transform="translate(-64.03 -45.17)"/></g></svg>