<svg id="Layer_1" data-name="Layer 1" xmlns="http://www.w3.org/2000/svg" viewBox="0 0 238.82 45.98"><defs><style>.cls-1{fill:#3c9;}.cls-2{fill:#666;}.cls-3{fill:#1b1464;}.cls-4{fill:#f33;}</style></defs><rect class="cls-1" x="0.5" y="0.5" width="107.82" height="44.98"/><path class="cls-2" d="M283.41,52V96H176.59V52H283.41m1-1H175.59V97H284.41V51Z" transform="translate(-175.59 -51.01)"/><path class="cls-3" d="M213.37,63.2h4.87v.86h-3.86v2.45h3.26v.86h-3.26v2.85h4v.85h-5Z" transform="translate(-175.59 -51.01)"/><path class="cls-3" d="M220.16,68.17a3,3,0,0,1,3.25-3.07,2.94,2.94,0,0,1,2.12.85l-.49.64a2.39,2.39,0,0,0-1.59-.66,2.14,2.14,0,0,0-2.27,2.24,2.12,2.12,0,0,0,2.24,2.22,2.81,2.81,0,0,0,1.8-.73l.44.64a3.44,3.44,0,0,1-2.31.92A2.94,2.94,0,0,1,220.16,68.17Z" transform="translate(-175.59 -51.01)"/><path class="cls-3" d="M227.52,62.53h1v2.33l-.06,1.38h0a2.9,2.9,0,0,1,2.17-1.14c1.38,0,2,.81,2,2.35v3.62h-1V67.58c0-1.1-.39-1.62-1.33-1.62-.7,0-1.17.35-1.84,1.05v4.06h-1Z" transform="translate(-175.59 -51.01)"/><path class="cls-3" d="M236.07,68.81V66.05h-1.65V65.3l1.69-.06.13-1.87h.83v1.87h2.85v.81h-2.85v2.77c0,1,.34,1.58,1.47,1.58a4,4,0,0,0,1.39-.26l.22.73a5.12,5.12,0,0,1-1.82.35C236.62,71.22,236.07,70.24,236.07,68.81Z" transform="translate(-175.59 -51.01)"/><path class="cls-3" d="M241.61,68.15a2.93,2.93,0,0,1,3-3.05,2.5,2.5,0,0,1,2.66,2.73,3.28,3.28,0,0,1-.05.6h-4.93v-.76h4.35l-.26.27c0-1.38-.68-2.06-1.75-2.06a2,2,0,0,0-2,2.27,2.11,2.11,0,0,0,2.28,2.27,3.15,3.15,0,0,0,1.77-.55l.36.65a4,4,0,0,1-2.25.7A3,3,0,0,1,241.61,68.15Z" transform="translate(-175.59 -51.01)"/><path class="cls-3" d="M209.22,82.55a2.93,2.93,0,0,1,3-3,2.5,2.5,0,0,1,2.66,2.73,3.28,3.28,0,0,1,0,.6h-4.92v-.76h4.34l-.25.27c0-1.38-.69-2.06-1.76-2.06a2,2,0,0,0-2,2.27,2.11,2.11,0,0,0,2.28,2.27,3.12,3.12,0,0,0,1.77-.55l.36.65a4,4,0,0,1-2.25.7A3,3,0,0,1,209.22,82.55Z" transform="translate(-175.59 -51.01)"/><path class="cls-3" d="M216.62,81.14h5.16v.75h-5.16Z" transform="translate(-175.59 -51.01)"/><path class="cls-3" d="M223.5,79.64h.79l.08.77h0a1.42,1.42,0,0,1,1.33-.91c.57,0,.93.33,1.1,1,.34-.63.7-1,1.37-1s1.29.63,1.29,1.8v4.17h-1v-4.1c0-.67-.19-1-.62-1s-.63.3-.94.9v4.22H226v-4.1c0-.67-.17-1-.6-1s-.67.3-1,.9v4.22h-1Z" transform="translate(-175.59 -51.01)"/><path class="cls-3" d="M231,84c0-1.31,1.22-1.94,4.23-2.18a1.38,1.38,0,0,0-1.54-1.47,4,4,0,0,0-2,.7l-.4-.67a5,5,0,0,1,2.6-.84,2.17,2.17,0,0,1,2.38,2.4v3.57h-.83l-.08-.79h0a4,4,0,0,1-2.29.94A1.77,1.77,0,0,1,231,84Zm4.23,0V82.44c-2.49.19-3.25.68-3.25,1.45s.6.92,1.27.92A3.18,3.18,0,0,0,235.19,84Z" transform="translate(-175.59 -51.01)"/><path class="cls-3" d="M241,80.45h-2.7v-.81H242v5.83h-1Zm-.4-2.8a.79.79,0,0,1,1.58,0,.79.79,0,0,1-1.58,0Z" transform="translate(-175.59 -51.01)"/><path class="cls-3" d="M247.35,83.52V77.74h-2.06v-.81h3.06v6.66a1,1,0,0,0,1.15,1.2,2.68,2.68,0,0,0,1.09-.27l.25.75a3.5,3.5,0,0,1-1.56.35C248,85.62,247.35,84.9,247.35,83.52Z" transform="translate(-175.59 -51.01)"/><rect class="cls-4" x="130.5" y="0.5" width="107.82" height="44.98"/><path class="cls-2" d="M413.41,52V96H306.59V52H413.41m1-1H305.59V97H414.41V51Z" transform="translate(-175.59 -51.01)"/><path class="cls-3" d="M340,70.4h4.83v.86H341v2.65h3.24v.85H341v3.51h-1Z" transform="translate(-175.59 -51.01)"/><path class="cls-3" d="M347.34,72.44h.83l.09,1.38h0a3.06,3.06,0,0,1,2.6-1.52,2.45,2.45,0,0,1,1.15.24l-.23.85a2.92,2.92,0,0,0-1.08-.19,2.74,2.74,0,0,0-2.4,1.67v3.4h-1Z" transform="translate(-175.59 -51.01)"/><path class="cls-3" d="M353.76,76.76c0-1.31,1.22-1.94,4.23-2.18a1.38,1.38,0,0,0-1.54-1.47,4,4,0,0,0-2,.7l-.4-.67a5,5,0,0,1,2.6-.84A2.17,2.17,0,0,1,359,74.7v3.57h-.83l-.08-.79h0a3.92,3.92,0,0,1-2.29.94A1.77,1.77,0,0,1,353.76,76.76Zm4.23,0V75.24c-2.49.19-3.25.68-3.25,1.45s.6.92,1.27.92A3.18,3.18,0,0,0,358,76.75Z" transform="translate(-175.59 -51.01)"/><path class="cls-3" d="M360.92,76.06V72.44h1v3.49c0,1.09.38,1.62,1.34,1.62a2.29,2.29,0,0,0,1.81-1.07v-4h1v5.83h-.83l-.08-1h-.05a2.83,2.83,0,0,1-2.17,1.17C361.56,78.42,360.92,77.6,360.92,76.06Z" transform="translate(-175.59 -51.01)"/><path class="cls-3" d="M367.92,75.37a2.8,2.8,0,0,1,2.64-3.07,2.5,2.5,0,0,1,1.75.74h0l0-1.06V69.73h1v8.54h-.82l-.08-.77h0a2.74,2.74,0,0,1-1.9.92C368.93,78.42,367.92,77.31,367.92,75.37Zm4.37,1.34v-2.9a2.17,2.17,0,0,0-1.53-.67,2,2,0,0,0-1.82,2.22c0,1.39.65,2.22,1.71,2.22A2.21,2.21,0,0,0,372.29,76.71Z" transform="translate(-175.59 -51.01)"/><path class="cls-3" d="M375.21,75.35a2.93,2.93,0,0,1,3-3A2.5,2.5,0,0,1,380.85,75a3.28,3.28,0,0,1-.05.6h-4.92v-.76h4.34l-.26.27c0-1.38-.68-2.06-1.75-2.06a2,2,0,0,0-2,2.27,2.11,2.11,0,0,0,2.28,2.27,3.15,3.15,0,0,0,1.77-.55l.36.65a4,4,0,0,1-2.25.7A3,3,0,0,1,375.21,75.35Z" transform="translate(-175.59 -51.01)"/></svg>