<svg id="UITekstvak" xmlns="http://www.w3.org/2000/svg" viewBox="0 0 411.24 389.7"><defs><style>.cls-1{fill:#ffffcf;}.cls-2{fill:#bcc5d8;}.cls-3{fill:#5c7aff;stroke:#bcc5d8;stroke-miterlimit:10;}.cls-4{fill:#666;}</style></defs><rect class="cls-1" x="115.58" y="82.51" width="295.15" height="306.69"/><path class="cls-2" d="M443,107.28V413H148.8V107.28H443m1-1H147.8V414H444V106.28Z" transform="translate(-32.72 -24.27)"/><rect class="cls-2" x="0.75" y="16.89" width="409.99" height="66.12"/><path class="cls-2" d="M443,41.66v65.12H34V41.66H443m1-1H33v67.12H444V40.66Z" transform="translate(-32.72 -24.27)"/><rect class="cls-3" x="0.5" y="0.5" width="410.21" height="15.89"/><rect class="cls-1" x="0.75" y="82.93" width="114.98" height="306.28"/><path class="cls-2" d="M148,107.69V413H34V107.69H148m1-1H33V414H149V106.69Z" transform="translate(-32.72 -24.27)"/><path class="cls-4" d="M142.69,46.08v55.84H39V46.08H142.69m1-1H38v57.84H143.69V45.08Z" transform="translate(-32.72 -24.27)"/><path class="cls-4" d="M438.1,46.08v55.84H154.45V46.08H438.1m1-1H153.45v57.84H439.1V45.08Z" transform="translate(-32.72 -24.27)"/></svg>