<svg xmlns="http://www.w3.org/2000/svg" xmlns:xlink="http://www.w3.org/1999/xlink" viewBox="0 0 1920 1080"><defs><style>.cls-1{fill:#b2dbda;}.cls-2{fill:#c8edeb;}.cls-3{fill:#c5beaf;}.cls-4{fill:#ad7d5c;}.cls-5{fill:#7d563e;}.cls-6{fill:#8e6149;}.cls-7{fill:#d17e46;}.cls-8{fill:#aa603f;}.cls-12,.cls-15,.cls-9{fill:none;stroke-miterlimit:10;}.cls-12,.cls-9{stroke:#1f2023;stroke-linecap:round;}.cls-9{stroke-width:8px;}.cls-10{fill:#062e47;}.cls-11{fill:#003;}.cls-12{stroke-width:2px;}.cls-13{fill:#feffe9;}.cls-14{fill:#eae1bb;}.cls-15{stroke:#feffe9;stroke-width:20px;}.cls-16{fill:#c00;}.cls-17{fill:#fff;}.cls-18{font-size:72px;fill:#f2f2f2;font-family:BentonSans-Bold, BentonSans;font-weight:700;}</style></defs><g id="Layer_5" data-name="Layer 5"><rect class="cls-1" x="0.5" width="1920" height="1080"/><rect class="cls-2" x="357" width="1137" height="612"/><polygon class="cls-3" points="357 612 1494 612 1921 770 -299 770 357 612"/><polygon class="cls-4" points="1552 73 1732 73 1732 701 1552 701 1424 623 1424 95 1552 73"/><path class="cls-5" d="M1498,615h-70l116,60V530l-46-10.31Z"/><path class="cls-6" d="M1498,519.69,1428,504V615h70Z"/><polygon class="cls-6" points="1428 104 1428 234 1498 229.17 1498 104 1428 104"/><polygon class="cls-5" points="1428 104 1498 104 1498 229.17 1544 226 1544 87 1428 104"/><polygon class="cls-5" points="1498 245.01 1498 367.19 1434.71 367.19 1544 370.01 1544 239.01 1428 245.01 1498 245.01"/><polygon class="cls-6" points="1498 245.01 1428 245.01 1428 245.01 1428 367.01 1434.71 367.19 1498 367.19 1498 245.01"/><polygon class="cls-5" points="1498 494.49 1428 494.49 1428 494.49 1544 515.49 1544 383.49 1498 381.11 1498 494.49"/><polygon class="cls-6" points="1498 381.11 1428 377.49 1428 494.49 1498 494.49 1498 381.11"/><polygon class="cls-4" points="281 630.5 281 61 77 2 77 679.5 281 630.5"/><polygon class="cls-6" points="264 595 264 357 105 357 105 624 264 595"/><polygon class="cls-6" points="263.63 317.3 263.63 92.3 104.63 51.3 104.63 305.3 263.63 317.3"/></g><g id="Desk_and_Wall" data-name="Desk and Wall"><path class="cls-7" d="M1454.92,712.37C1393.07,772.39,1231.47,897.49,960,896c-283.73-1.55-455.67-127.59-518.17-183.63H0V1080H1920V712.37Z"/><path class="cls-8" d="M1454.92,712.37H441.83C504.33,768.41,676.27,894.45,960,896,1231.47,897.49,1393.07,772.39,1454.92,712.37Z"/><path class="cls-8" d="M1739,996c-32.36,36.74-81,38-148,9-66.4-28.74-97-66-90.82-88.55C1508,888.14,1557.59,856.59,1627,877,1712,902,1772,958.52,1739,996Z"/><polygon class="cls-8" points="599 936 1357 936 1504 1091 599 1091 599 936"/><path class="cls-8" d="M418,849.5c0-24-37.61-43.5-84-43.5s-110,55.48-110,79.5S219.65,938,266,940C337,943,418,873.52,418,849.5Z"/></g><g id="Comp"><path class="cls-9" d="M1505,897s-94-65-227-70c-76.74-2.88-155-25-175-96"/><path class="cls-9" d="M898,956s9-37-87-37-125-29-111-67,57-98,178-98"/><polygon class="cls-10" points="1147.46 890.19 772.54 890.19 826.6 801.65 1094.1 802.02 1147.46 890.19"/><polygon class="cls-10" points="580.41 940 1348.66 940 1477.94 1079.91 461.54 1079.91 580.41 940"/><rect class="cls-11" x="870.2" y="718.89" width="179.6" height="141.79"/><path class="cls-11" d="M445.63,747v10.84a8.7,8.7,0,0,0,8.7,8.69H1465.67a8.7,8.7,0,0,0,8.7-8.69V747Z"/><path class="cls-10" d="M1474.37,113a8.71,8.71,0,0,0-8.7-8.7H454.33a8.71,8.71,0,0,0-8.7,8.7V747H1474.37Z"/><rect x="488.64" y="142.97" width="942.71" height="560.98" rx="6.64"/><path class="cls-11" d="M1507,937a139,139,0,0,1-18.94-25.6c3.73,26.57,35.71,51.82,75.07,77.32,52.74,34.17,124.46,53.31,148.45,16.28.34-.53.68-1.06,1-1.59-9.44,4.38-21.75,7.59-37.58,7.59C1625,1011,1528,960,1507,937Z"/><path class="cls-10" d="M1669.26,896.92c-52.74-34.17-150.39-50.15-174.38-13.12-6.09,9.39-8.08,18.57-6.82,27.6A139,139,0,0,0,1507,937c21,23,118,74,168,74,15.83,0,28.14-3.21,37.58-7.59C1735.17,966.92,1721.24,930.6,1669.26,896.92Z"/><path class="cls-12" d="M1501,880s36-6,74,12c0,0-30.5,27.5-45.5,54.5C1529.5,946.5,1484,920,1501,880Z"/><path class="cls-12" d="M1502.5,878.5S1539,873,1578,890c0,0,19-14,28-17,0,0-32-10.64-65-8C1516,867,1502.5,878.5,1502.5,878.5Z"/><path class="cls-13" d="M346.73,729.34C346.49,708.71,305.94,692,256,692s-90.55,16.69-90.79,37.32H165V903.16h.29c0,20.71,40.65,37.5,90.79,37.5s90.79-16.79,90.79-37.5V729.34Z"/><ellipse class="cls-14" cx="255.98" cy="727.33" rx="84.89" ry="29.25"/><path class="cls-15" d="M174.54,761.78s-10-17.45-31.7-15.67S89.4,799.54,117.9,836.59s63.41,52.73,63.41,52.73"/><rect class="cls-11" x="771.94" y="890.19" width="375.51" height="8.27"/><polygon class="cls-11" points="603.57 970.11 1323.06 972.15 1409.82 1079.86 521.87 1079.89 603.57 970.11"/><g id="top_keys" data-name="top keys"><polygon class="cls-10" points="619.98 1009.38 654.73 1009.38 674.6 977 642.1 977 619.98 1009.38"/><polygon class="cls-10" points="740.88 1009.38 775.63 1009.38 787.68 977 755.18 977 740.88 1009.38"/><polygon class="cls-10" points="700.58 1009.38 735.33 1009.38 749.99 977 717.49 977 700.58 1009.38"/><polygon class="cls-10" points="781.18 1009.38 815.93 1009.38 825.37 977 792.88 977 781.18 1009.38"/><polygon class="cls-10" points="861.79 1009.38 896.53 1009.38 900.76 977 868.27 977 861.79 1009.38"/><polygon class="cls-10" points="821.49 1009.38 856.23 1009.38 863.07 977 830.57 977 821.49 1009.38"/><polygon class="cls-10" points="660.28 1009.38 695.03 1009.38 712.29 977 679.8 977 660.28 1009.38"/><polygon class="cls-10" points="580 1009.38 614.74 1009.38 637.2 977 604.7 977 580 1009.38"/><polygon class="cls-10" points="942.39 1009.38 977.13 1009.38 976.15 977 943.65 977 942.39 1009.38"/><polygon class="cls-10" points="902.09 1009.38 936.83 1009.38 938.46 977 905.96 977 902.09 1009.38"/><polygon class="cls-10" points="982.69 1009.38 1017.43 1009.38 1013.84 977 981.35 977 982.69 1009.38"/><polygon class="cls-10" points="1022.99 1009.38 1057.73 1009.38 1051.54 977 1019.04 977 1022.99 1009.38"/><polygon class="cls-10" points="1063.29 1009.38 1098.03 1009.38 1089.23 977 1056.74 977 1063.29 1009.38"/><polygon class="cls-10" points="1103.59 1009.38 1138.33 1009.38 1126.93 977 1094.43 977 1103.59 1009.38"/><polygon class="cls-10" points="1185.58 1009.38 1220.32 1009.38 1203.61 977 1171.12 977 1185.58 1009.38"/><polygon class="cls-10" points="1145.28 1009.38 1180.02 1009.38 1165.92 977 1133.42 977 1145.28 1009.38"/><polygon class="cls-10" points="1268.96 1009.38 1303.7 1009.38 1281.6 977 1249.11 977 1268.96 1009.38"/><polygon class="cls-10" points="1227.27 1009.38 1262.01 1009.38 1242.61 977 1210.11 977 1227.27 1009.38"/><polygon class="cls-10" points="1309.26 1009.38 1344 1009.38 1319.3 977 1286.8 977 1309.26 1009.38"/></g><g id="Second_keys" data-name="Second keys"><polygon class="cls-10" points="556 1050.31 632.74 1050.31 654.1 1017.93 578.86 1017.93 556 1050.31"/><polygon class="cls-10" points="725.53 1050.31 762.83 1050.31 776.22 1017.93 741.48 1017.93 725.53 1050.31"/><polygon class="cls-10" points="682.26 1050.31 719.56 1050.31 735.92 1017.93 701.17 1017.93 682.26 1050.31"/><polygon class="cls-10" points="768.79 1050.31 806.09 1050.31 816.53 1017.93 781.78 1017.93 768.79 1050.31"/><polygon class="cls-10" points="855.33 1050.31 892.63 1050.31 897.14 1017.93 862.39 1017.93 855.33 1050.31"/><polygon class="cls-10" points="812.06 1050.31 849.36 1050.31 856.83 1017.93 822.09 1017.93 812.06 1050.31"/><polygon class="cls-10" points="638.99 1050.31 676.29 1050.31 695.61 1017.93 660.87 1017.93 638.99 1050.31"/><polygon class="cls-10" points="941.86 1050.31 979.16 1050.31 977.75 1017.93 943 1017.93 941.86 1050.31"/><polygon class="cls-10" points="898.59 1050.31 935.89 1050.31 937.44 1017.93 902.7 1017.93 898.59 1050.31"/><polygon class="cls-10" points="985.13 1050.31 1022.43 1050.31 1018.05 1017.93 983.31 1017.93 985.13 1050.31"/><polygon class="cls-10" points="1028.39 1050.31 1065.69 1050.31 1058.36 1017.93 1023.61 1017.93 1028.39 1050.31"/><polygon class="cls-10" points="1071.66 1050.31 1108.96 1050.31 1098.66 1017.93 1063.92 1017.93 1071.66 1050.31"/><polygon class="cls-10" points="1114.93 1050.31 1152.23 1050.31 1138.97 1017.93 1104.22 1017.93 1114.93 1050.31"/><polygon class="cls-10" points="1158.89 1050.31 1239.63 1050.31 1222 1017.93 1146.28 1017.93 1158.89 1050.31"/><polygon class="cls-10" points="1296.47 1050.31 1334.22 1050.31 1310.21 1017.93 1274.91 1017.93 1296.47 1050.31"/><polygon class="cls-10" points="1251.18 1050.31 1288.93 1050.31 1267.85 1017.93 1232.55 1017.93 1251.18 1050.31"/><polygon class="cls-10" points="1340.26 1050.31 1378 1050.31 1351.16 1017.93 1315.86 1017.93 1340.26 1050.31"/></g><polygon class="cls-10" points="1325.27 1090.51 1364.39 1090.51 1339.5 1058.13 1302.91 1058.13 1325.27 1090.51"/><polygon class="cls-10" points="1278.32 1090.51 1317.44 1090.51 1295.59 1058.13 1259 1058.13 1278.32 1090.51"/><polygon class="cls-10" points="1370.65 1090.51 1409.77 1090.51 1381.95 1058.13 1345.36 1058.13 1370.65 1090.51"/><polygon class="cls-10" points="528 1091 610.18 1091 633.05 1058.79 552.48 1058.79 528 1091"/><polygon class="cls-10" points="710.35 1091 748.43 1091 762.11 1058.79 726.63 1058.79 710.35 1091"/><polygon class="cls-10" points="666.17 1091 704.26 1091 720.96 1058.79 685.48 1058.79 666.17 1091"/><polygon class="cls-10" points="754.52 1091 792.61 1091 803.26 1058.79 767.78 1058.79 754.52 1091"/><polygon class="cls-10" points="842.87 1091 880.95 1091 885.56 1058.79 850.09 1058.79 842.87 1091"/><polygon class="cls-10" points="798.7 1091 836.78 1091 844.41 1058.79 808.93 1058.79 798.7 1091"/><polygon class="cls-10" points="622 1091 660.08 1091 679.81 1058.79 644.33 1058.79 622 1091"/><polygon class="cls-10" points="931.22 1091 969.3 1091 967.86 1058.79 932.39 1058.79 931.22 1091"/><polygon class="cls-10" points="887.05 1091 925.13 1091 926.71 1058.79 891.24 1058.79 887.05 1091"/><polygon class="cls-10" points="975.39 1091 1013.48 1091 1009.01 1058.79 973.54 1058.79 975.39 1091"/><polygon class="cls-10" points="1019.57 1091 1057.65 1091 1050.16 1058.79 1014.69 1058.79 1019.57 1091"/><polygon class="cls-10" points="1063.74 1091 1101.83 1091 1091.31 1058.79 1055.84 1058.79 1063.74 1091"/><polygon class="cls-10" points="1107.92 1091 1146 1091 1132.46 1058.79 1096.99 1058.79 1107.92 1091"/><polygon class="cls-10" points="1156.22 1091 1260.09 1091 1244 1059 1140 1058.79 1156.22 1091"/><path class="cls-16" d="M280.75,782V923.25c19-8.51,32.25-32.58,32.25-54.75V775A263.69,263.69,0,0,1,280.75,782Z"/><path class="cls-16" d="M204,775v93.5c0,22.17,13.25,46.24,32.25,54.75V782A229,229,0,0,1,204,775Z"/><path d="M236.25,782V923.25A54.36,54.36,0,0,0,258.5,928h0a54.36,54.36,0,0,0,22.25-4.75V782A155.74,155.74,0,0,1,236.25,782Z"/><polygon class="cls-17" points="275.68 885.69 269.31 879.32 258 890.64 246.69 879.32 240.32 885.69 251.64 897 240.32 908.31 246.69 914.68 258 903.36 269.31 914.68 275.68 908.31 264.36 897 275.68 885.69"/><polygon class="cls-17" points="275.76 841.73 269.4 835.37 258.08 846.68 246.77 835.37 240.41 841.73 251.72 853.04 240.41 864.36 246.77 870.72 258.08 859.41 269.4 870.72 275.76 864.36 264.45 853.04 275.76 841.73"/><polygon class="cls-17" points="275.76 797.73 269.4 791.37 258.08 802.68 246.77 791.37 240.41 797.73 251.72 809.04 240.41 820.36 246.77 826.72 258.08 815.41 269.4 826.72 275.76 820.36 264.45 809.04 275.76 797.73"/></g><g id="Titel"><text class="cls-18" transform="translate(656.99 239.45)">Het Dilemmaspel</text></g><g id="test"><image width="837" height="420" transform="translate(1204.69 588.01) scale(0.27)" xlink:href="../LogoGemeente_01.png"/></g></svg>